<svg xmlns="http://www.w3.org/2000/svg" width="23.068" height="19.936" viewBox="0 0 23.068 19.936"><defs><style>.a{fill:#0093e9;}</style></defs><g transform="translate(-10.8 -19.875)"><path class="a" d="M11.343,26.184l10.612,4.522a.765.765,0,0,0,.362.06,1.513,1.513,0,0,0,.362-.06l10.612-4.522a.928.928,0,0,0,0-1.688L22.679,19.943a1,1,0,0,0-.724,0L11.343,24.5a.928.928,0,0,0,0,1.688Zm10.974-4.4,8.321,3.558-8.321,3.527L14,25.34Z" transform="translate(0 0)"/><path class="a" d="M32.6,65.021l-10.251,4.4L12.1,65.021a.9.9,0,1,0-.693,1.658l10.612,4.552a.765.765,0,0,0,.362.06,1.513,1.513,0,0,0,.362-.06l10.612-4.552a.922.922,0,0,0,.482-1.176A1,1,0,0,0,32.6,65.021Z" transform="translate(-0.031 -31.481)"/><path class="a" d="M11.362,51.709l10.612,4.522a.765.765,0,0,0,.362.06,1.513,1.513,0,0,0,.362-.06L33.31,51.709a.911.911,0,0,0,.482-1.176.922.922,0,0,0-1.176-.482L22.336,54.393,12.085,50.021a.886.886,0,0,0-1.176.482A.916.916,0,0,0,11.362,51.709Z" transform="translate(-0.019 -21.003)"/></g></svg>