<svg xmlns="http://www.w3.org/2000/svg" viewBox="0 0 278.48 20.12"><defs><style>.cls-1{fill:#0093e9;}</style></defs><title>Vaccine Ledger logo</title><g id="Layer_2" data-name="Layer 2"><g id="Layer_1-2" data-name="Layer 1"><path className="cls-1" d="M7.66,19.9,0,.17H5.35L10.4,14.68l5-14.51H20.6L12.85,19.9Z"/><path className="cls-1" d="M28.33,16.26,26.9,19.9H21.74L30.25.17h5.16L43.72,19.9H38.37L37,16.26Zm4.35-11.1-2.88,7.3h5.69Z"/><path className="cls-1" d="M65,3.33l-2.9,3.44a6.75,6.75,0,0,0-5-2.57,5.51,5.51,0,0,0-5.5,5.72,5.55,5.55,0,0,0,5.5,5.81,7.44,7.44,0,0,0,5-2.31l2.93,3.1a11.89,11.89,0,0,1-8.14,3.6A10,10,0,0,1,46.56,10c0-5.7,4.53-10,10.54-10A11.44,11.44,0,0,1,65,3.33Z"/><path className="cls-1" d="M87,3.33l-2.9,3.44a6.77,6.77,0,0,0-5-2.57,5.51,5.51,0,0,0-5.5,5.72,5.55,5.55,0,0,0,5.5,5.81,7.44,7.44,0,0,0,5-2.31l2.93,3.1a11.93,11.93,0,0,1-8.15,3.6A10,10,0,0,1,68.55,10c0-5.7,4.54-10,10.54-10A11.46,11.46,0,0,1,87,3.33Z"/><path className="cls-1" d="M92.18,19.9V.17h5V19.9Z"/><path className="cls-1" d="M117.75,19.9,108.67,7.75V19.9H104V.17h4.42l9.11,12.18V.17h4.67V19.9Z"/><path className="cls-1" d="M134,4.12V8h9.41v4H134v4H144.7V19.9H129V.17H144.4v4Z"/><path d="M164.16,15.7v4.2H150.78V.17h5V15.7Z"/><path d="M174.4,4.12V8h9.42v4H174.4v4h10.74V19.9H169.39V.17h15.44v4Z"/><path d="M199.7.17c6.2,0,10.48,4,10.48,9.87s-4.34,9.86-10.68,9.86h-8.29V.17ZM196.23,15.9h3.58c3.07,0,5.27-2.37,5.27-5.84s-2.31-5.89-5.5-5.89h-3.35Z"/><path d="M232.74,9.87v7.69a15.52,15.52,0,0,1-8.2,2.56c-6,0-10.54-4.34-10.54-10.08s4.65-10,10.88-10a12.63,12.63,0,0,1,8.06,2.93l-2.82,3.41a8.13,8.13,0,0,0-5.27-2.14A5.68,5.68,0,0,0,219.13,10a5.72,5.72,0,0,0,5.78,5.88A8.38,8.38,0,0,0,228.4,15V9.87Z"/><path d="M244.08,4.12V8h9.42v4h-9.42v4h10.74V19.9H239.07V.17h15.44v4Z"/><path d="M269.86,14.35h-3.95V19.9h-5V.17h8.83c5.21,0,8.2,2.48,8.2,6.88,0,3-1.27,5.18-3.58,6.34l4.14,6.51h-5.69Zm-.14-3.95c2.16,0,3.43-1.1,3.43-3.19s-1.27-3.09-3.43-3.09h-3.81V10.4Z"/></g></g></svg>