<svg xmlns="http://www.w3.org/2000/svg" width="16.446" height="20.544" viewBox="0 0 16.446 20.544"><defs><style>.a{fill:#fff;}</style></defs><path class="a" d="M152.346,2.129V.6a.6.6,0,1,0-1.2,0V2.129A2.248,2.248,0,0,0,149.5,4.291V6.383a2.248,2.248,0,0,0,1.642,2.162v11.4a.6.6,0,1,0,1.2,0V8.544a2.248,2.248,0,0,0,1.642-2.162V4.291A2.248,2.248,0,0,0,152.346,2.129Zm.439,4.254a1.04,1.04,0,0,1-2.081,0V4.291a1.04,1.04,0,0,1,2.081,0Zm0,0" transform="translate(-143.521)"/><path class="a" d="M3.346,6.31V.6a.6.6,0,0,0-1.2,0V6.31A2.248,2.248,0,0,0,.5,8.472v2.092a2.248,2.248,0,0,0,1.642,2.162v7.217a.6.6,0,1,0,1.2,0V12.725a2.248,2.248,0,0,0,1.642-2.162V8.472A2.247,2.247,0,0,0,3.346,6.31Zm.439,4.254a1.04,1.04,0,1,1-2.081,0V8.472a1.04,1.04,0,1,1,2.081,0Zm0,0" transform="translate(-0.5)"/><path class="a" d="M301.346,11.082V.6a.6.6,0,0,0-1.2,0v10.48a2.248,2.248,0,0,0-1.642,2.162v2.092a2.248,2.248,0,0,0,1.642,2.162v2.445a.6.6,0,0,0,1.2,0V17.5a2.248,2.248,0,0,0,1.642-2.161V13.243A2.248,2.248,0,0,0,301.346,11.082Zm.439,4.254a1.04,1.04,0,0,1-2.081,0V13.243a1.04,1.04,0,1,1,2.081,0Zm0,0" transform="translate(-286.543)"/></svg>