<svg xmlns="http://www.w3.org/2000/svg" width="464.947" height="511.846" viewBox="0 0 464.947 511.846">
  <g id="Group_6504" data-name="Group 6504" transform="translate(1469.919 -786.79)">
    <path id="Path_6231" data-name="Path 6231" d="M-1238.043,1181.178q-104.807,0-209.612,0c-11.056,0-18.765-5.507-21.468-15.627-2.279-8.535.4-15.761,7.152-21.145,10.446-8.333,18.417-18.707,25.27-29.955,14.888-24.442,23.663-51.2,29.374-79.094a379.286,379.286,0,0,0,6.811-50.995c.781-11.757,1.112-23.559,1.192-35.346.254-37.24,11.488-70.741,34.473-100,25.283-32.182,58.228-52.348,98.588-59.45,49.335-8.682,93.8,3.016,132.389,34.879,30.756,25.393,49.456,58.242,56.01,97.686,1.409,8.479,1.73,17.16,2.2,25.766.87,15.809.912,31.684,2.32,47.44,2.826,31.609,9.131,62.5,21.434,91.948,6.155,14.732,13.478,28.851,23.649,41.226a142.9,142.9,0,0,0,15.268,15.535c6.416,5.739,9.335,12.527,7.46,20.907-1.82,8.122-7.038,13.418-15.129,15.532a30.039,30.039,0,0,1-7.5.668Q-1133.1,1181.2-1238.043,1181.178Zm166.754-41.443a8.4,8.4,0,0,0-.425-1.1c-14-22.206-23.671-46.258-30.652-71.482a401.19,401.19,0,0,1-13.141-79.88c-.829-12.113-.81-24.283-1.287-36.423-.24-6.109-.334-12.264-1.173-18.3-3.312-23.825-12.51-45.163-28.7-63.049-28.923-31.949-64.986-45.706-107.781-39.928-34.063,4.6-61.165,21.578-81.25,49.393-13.866,19.2-21.1,40.842-22.092,64.557-.762,18.155-1.376,36.322-2.594,54.448a349.374,349.374,0,0,1-10.259,62.382c-6.6,26.059-15.949,51.019-29.916,74.11-1.006,1.662-1.989,3.338-3.142,5.275Z" transform="translate(0)" fill="#fff"/>
    <path id="Path_6232" data-name="Path 6232" d="M-1256.176,1265.31c-19.444-.99-38.7-11.579-51.88-32.6-8.03-12.807-1.552-28.074,13.178-31.544a20.183,20.183,0,0,1,20.61,8.077c3.34,5,6.975,9.528,12.606,12.183a26.231,26.231,0,0,0,33.354-9.068c3.54-5.387,7.709-9.709,14.247-11.043,8.3-1.694,15.392.577,20.67,7.245,4.952,6.256,6.242,13.422,2.8,20.739-5.618,11.929-14.8,20.643-26.093,27.215C-1227.272,1262.675-1238.78,1265.36-1256.176,1265.31Z" transform="translate(12.752 33.325)" fill="#fff"/>
  </g>
</svg>
