<svg id="briefcase" xmlns="http://www.w3.org/2000/svg" width="511.979" height="452.923" viewBox="0 0 511.979 452.923">
  <path id="Path_7380" data-name="Path 7380" d="M496.98,120.735H361.36V90.849A60.714,60.714,0,0,0,300.8,30.125H211.184A60.714,60.714,0,0,0,150.62,90.849v29.885H15A15.02,15.02,0,0,0,0,135.774V408.981a74.054,74.054,0,0,0,73.872,74.067H438.107a74.054,74.054,0,0,0,73.872-74.067V135.774A15.02,15.02,0,0,0,496.98,120.735ZM290.023,316.993a34.034,34.034,0,1,1-68.067,0V282.87h68.067Zm15-64.2H206.957a15.02,15.02,0,0,0-15,15.039v27.318C104.733,276.167,39.346,219.442,30.934,150.813H481.044c-8.413,68.63-73.8,125.355-161.022,144.337V267.832a15.02,15.02,0,0,0-15-15.04ZM180.618,90.849A30.641,30.641,0,0,1,211.183,60.2h89.611a30.641,30.641,0,0,1,30.566,30.646v29.885H180.617V90.849ZM481.98,408.981a43.981,43.981,0,0,1-43.873,43.989H73.872A43.981,43.981,0,0,1,30,408.981V228.367a210.851,210.851,0,0,0,46.585,47.578c32.686,24.579,72.589,41.643,116.017,50.062a64,64,0,0,0,126.777,0c43.428-8.419,83.331-25.483,116.017-50.062a210.867,210.867,0,0,0,46.585-47.578Z" transform="translate(0 -30.125)" fill="#707070"/>
</svg>
