<svg id="Group_6796" data-name="Group 6796" xmlns="http://www.w3.org/2000/svg" width="512" height="512" viewBox="0 0 512 512">
  <g id="cancel" transform="translate(0 0)">
    <circle id="Ellipse_90" data-name="Ellipse 90" cx="256" cy="256" r="256" fill="#e24c4b"/>
    <path id="Path_6408" data-name="Path 6408" d="M505.226,249.536c0,140.63-115.061,255.691-255.691,255.691-81.5,0-153.414-36.755-199.758-95.884,43.148,35.158,99.08,55.933,159.806,55.933,140.63,0,255.691-115.061,255.691-255.691,0-60.726-20.775-116.658-55.933-159.806C468.471,96.121,505.226,168.034,505.226,249.536Z" transform="translate(6.773 6.773)" fill="#d1403f"/>
  </g>
  <path id="Path_6420" data-name="Path 6420" d="M172.634,92.764h0c21,0,38.777,17.483,38.777,38.145,0,23.84-11.311,157.348-11.311,144.632-1.615,14.3-12.926,25.43-27.468,25.43h0c-14.542,0-25.852-11.126-27.468-25.43-12.926-154.169-11.311-144.632-11.311-144.632C133.857,108.659,150.014,92.764,172.634,92.764ZM133.857,358.189c0-20.662,16.157-38.144,38.777-38.144,21,0,38.777,15.893,38.777,38.144,0,20.662-16.157,38.145-38.777,38.145C150.014,394.745,133.857,378.85,133.857,358.189Z" transform="translate(82.957 11.754)" fill="#fff"/>
</svg>
