<svg xmlns="http://www.w3.org/2000/svg" width="398.221" height="511.995" viewBox="0 0 398.221 511.995"><path d="M411.1,60.5c-109.788,0-199.111,89.315-199.111,199.111A198.338,198.338,0,0,0,244.12,368.106c.949,1.459-8.607-11.444,144.195,192.985a28.458,28.458,0,0,0,45.568,0C586.617,356.744,577.107,369.6,578.077,368.106a198.334,198.334,0,0,0,32.131-108.492C610.209,149.819,520.887,60.5,411.1,60.5ZM530.879,336.33,411.1,496.553,291.318,336.33a141.586,141.586,0,0,1-22.444-76.715c0-78.426,63.806-142.224,142.224-142.224s142.224,63.8,142.224,142.224A141.647,141.647,0,0,1,530.879,336.33Zm0,0" transform="translate(-211.988 -60.504)" fill="#36c2cf"/><path d="M357.326,120.5a85.334,85.334,0,1,0,85.329,85.337A85.436,85.436,0,0,0,357.326,120.5Zm0,113.78a28.443,28.443,0,1,1,28.442-28.443A28.474,28.474,0,0,1,357.326,234.284Zm0,0" transform="translate(-158.215 -6.731)" fill="#36c2cf"/></svg>