<svg xmlns="http://www.w3.org/2000/svg" width="240.014" height="512.002" viewBox="0 0 240.014 512.002"><g transform="translate(469 -42)"><g transform="translate(-469 42)"><path d="M256.008,364.6V105.006a15,15,0,0,0-15-15h0a15,15,0,0,0-15,15V364.6a45,45,0,1,0,30,0Zm-15,57.423a15,15,0,1,1,15-15A15.018,15.018,0,0,1,241.005,422.022Z" transform="translate(-135.999 0)" fill="#fa7923"/><path d="M376.013,75h0a15,15,0,0,0-15-15H314.5A75.133,75.133,0,0,0,241.061,0C199.774-.031,166,34.8,166,76.083V333.537A104.985,104.985,0,0,0,241.212,512c53.446,0,95.242-39.855,103.226-86.57a105.194,105.194,0,0,0-28.429-91.9v-2.515h45a15,15,0,0,0,15-15h0a15,15,0,0,0-15-15h-45v-30h15a15,15,0,0,0,15-15v0a15,15,0,0,0-15-15h-15v-31h45a15,15,0,0,0,15-15v0a15,15,0,0,0-15-15h-45v-30h15a15,15,0,0,0,15-15h0a15,15,0,0,0-15-15h-15V90h45A15,15,0,0,0,376.013,75ZM314.864,420.377c-5.177,30.281-29.907,55.137-60.14,60.441A80.235,80.235,0,0,1,241,482.041a75.005,75.005,0,0,1-75-75.019c0-39.032,28.533-58.469,30-60.379V75a45,45,0,1,1,90.005,0V346.643C287.217,348.373,323.018,372.658,314.864,420.377Z" transform="translate(-136 0)" fill="#fa7923"/></g></g></svg>