<svg xmlns="http://www.w3.org/2000/svg" width="489.934" height="297.1" viewBox="0 0 489.934 297.1"><g transform="translate(0 -96.417)"><path d="M485.967,233.617c-74-91-153.9-137.2-237.7-137.2-33.2,0-66.8,7.4-100,21.9-26.1,11.5-52,27.4-76.9,47.3-42.1,33.7-66.9,67.3-67.9,68.7a18.158,18.158,0,0,0,.5,22c73.9,91.1,153.9,137.2,237.7,137.2,33.2,0,66.8-7.4,100-21.9,26.1-11.5,52-27.4,76.9-47.3,42.1-33.7,66.9-67.3,67.9-68.7A18.158,18.158,0,0,0,485.967,233.617Zm-90.7,63.2c-34.8,27.7-89.6,60.7-153.6,60.7-69.1,0-136.5-37.9-200.5-112.7a395.644,395.644,0,0,1,53.4-51.6c34.8-27.7,89.6-60.7,153.6-60.7,69.1,0,136.5,37.9,200.5,112.7A389.586,389.586,0,0,1,395.267,296.817Z"/><path d="M311.267,227.017a18.053,18.053,0,0,0-18,18,48.4,48.4,0,1,1-48.4-48.4,18,18,0,0,0,0-36,84.4,84.4,0,1,0,84.4,84.4A18.053,18.053,0,0,0,311.267,227.017Z"/></g></svg>