<svg xmlns="http://www.w3.org/2000/svg" width="512" height="512" viewBox="0 0 512 512"><path d="M508.526,100.606c-.017-.057-.036-.112-.054-.167A74.932,74.932,0,0,0,499.4,81.564L458.386,20.038A44.91,44.91,0,0,0,420.944,0H91.056A44.909,44.909,0,0,0,53.614,20.039L12.6,81.563a74.938,74.938,0,0,0-9.069,18.876c-.018.055-.036.11-.053.165A74.893,74.893,0,0,0,0,123.167V467a45.051,45.051,0,0,0,45,45H467a45.051,45.051,0,0,0,45-45V123.167A74.906,74.906,0,0,0,508.526,100.606ZM271,30H420.944a14.973,14.973,0,0,1,12.482,6.679L468.972,90H271ZM78.574,36.68A14.972,14.972,0,0,1,91.056,30H241V90H43.028ZM482,467a15.017,15.017,0,0,1-15,15H45a15.017,15.017,0,0,1-15-15c0-365.516-.058-344.56.113-347H481.886C482.057,122.42,482,101.116,482,467Z" fill="#89d1f0"/><path d="M317,180H195a45,45,0,0,0,0,90H317a45,45,0,0,0,0-90Zm0,60H195a15,15,0,0,1,0-30H317a15,15,0,0,1,0,30Z" fill="#89d1f0"/></svg>