<svg xmlns="http://www.w3.org/2000/svg" width="20.051" height="20.051" viewBox="0 0 20.051 20.051"><defs><style>.a{fill:#0093e9;}</style></defs><g transform="translate(0 0)"><path class="a" d="M19.915,3.94l0-.007a2.935,2.935,0,0,0-.355-.739L17.952.785A1.759,1.759,0,0,0,16.485,0H3.566A1.759,1.759,0,0,0,2.1.785L.493,3.194a2.935,2.935,0,0,0-.355.739l0,.006A2.933,2.933,0,0,0,0,4.824V18.289a1.764,1.764,0,0,0,1.762,1.762H18.289a1.764,1.764,0,0,0,1.762-1.762V4.824A2.934,2.934,0,0,0,19.915,3.94Zm-9.3-2.765h5.872a.586.586,0,0,1,.489.262l1.392,2.088H10.613Zm-7.536.262a.586.586,0,0,1,.489-.262H9.438v2.35H1.685Zm15.8,16.852a.588.588,0,0,1-.587.587H1.762a.588.588,0,0,1-.587-.587c0-14.315,0-13.494,0-13.589H18.872C18.879,4.794,18.876,3.96,18.876,18.289Z" transform="translate(0 0)"/></g><g transform="translate(5.874 7.049)"><path class="a" d="M156.54,180h-4.778a1.762,1.762,0,1,0,0,3.525h4.778a1.762,1.762,0,0,0,0-3.525Zm0,2.35h-4.778a.587.587,0,1,1,0-1.175h4.778a.587.587,0,0,1,0,1.175Z" transform="translate(-150 -180)"/></g></svg>