<svg xmlns="http://www.w3.org/2000/svg" width="24.002" height="24" viewBox="0 0 24.002 24"><defs><style>.a{fill:#ffffff;}</style></defs><path class="a" d="M21.246.937a3.305,3.305,0,0,0-4.67,0L15.406,2.112,2.961,14.551l-.026.027c-.006.006-.006.013-.013.013-.013.02-.033.039-.046.059s-.007.007-.007.013-.02.033-.033.053-.006.013-.013.02-.013.033-.02.053S2.8,14.8,2.8,14.8l-2.761,8.3a.65.65,0,0,0,.158.674.665.665,0,0,0,.469.192.779.779,0,0,0,.211-.033l8.3-2.768c.006,0,.006,0,.013-.006a.239.239,0,0,0,.059-.027.023.023,0,0,0,.013-.006c.02-.013.046-.027.066-.04s.04-.033.06-.046.013-.007.013-.013.02-.013.027-.026L23.036,7.39a3.305,3.305,0,0,0,0-4.67ZM8.959,19.617l-4.6-4.6L15.869,3.513l4.6,4.6ZM3.714,16.242l4.016,4.016L1.7,22.266ZM22.1,6.466l-.7.707-4.6-4.6.707-.707a1.981,1.981,0,0,1,2.8,0l1.8,1.8A1.988,1.988,0,0,1,22.1,6.466Zm0,0" transform="translate(0 0.029)"/></svg>