<svg xmlns="http://www.w3.org/2000/svg" width="436.217" height="508.794" viewBox="0 0 436.217 508.794"><g transform="translate(436.217 508.794) rotate(180)"><g transform="translate(0 89.617)"><path d="M348.7,172.364V7.535A7.548,7.548,0,0,0,341.14,0H95.076a7.548,7.548,0,0,0-7.56,7.535V172.364H7.575a7.533,7.533,0,0,0-5.6,12.593L212.505,416.7a7.577,7.577,0,0,0,11.207,0L434.246,184.957a7.533,7.533,0,0,0-5.6-12.593ZM50.51,198.881h63.611V26.517H322.1V198.881h63.611l-167.6,184.482Z" fill="#fa7923"/></g><path d="M234.864,26.67v20.2H26.669V26.67H234.864M7.56,0A7.56,7.56,0,0,0,0,7.56V65.98a7.56,7.56,0,0,0,7.56,7.56H253.973a7.559,7.559,0,0,0,7.56-7.56V7.56A7.559,7.559,0,0,0,253.973,0Z" transform="translate(87.314)" fill="#fa7923"/></g></svg>