<svg xmlns="http://www.w3.org/2000/svg" xmlns:xlink="http://www.w3.org/1999/xlink" width="35.415" height="75.548" viewBox="0 0 35.415 75.548"><defs><style>.a{fill:url(#a);}</style><linearGradient id="a" x1="0.5" x2="0.5" y2="1" gradientUnits="objectBoundingBox"><stop offset="0" stop-color="#0093e9"/><stop offset="1" stop-color="#36c2cf"/></linearGradient></defs><g transform="translate(0 0)"><path class="a" d="M204.858,130.522v-38.3A2.213,2.213,0,0,0,202.645,90h0a2.214,2.214,0,0,0-2.214,2.214v38.3a6.64,6.64,0,1,0,4.427,0Zm-2.214,8.473a2.213,2.213,0,1,1,2.214-2.214A2.216,2.216,0,0,1,202.644,138.994Z" transform="translate(-187.15 -76.724)"/><path class="a" d="M171.415,11.067h0A2.213,2.213,0,0,0,169.2,8.854h-6.863A11.086,11.086,0,0,0,151.5,0a11.234,11.234,0,0,0-11.075,11.226V49.215a15.5,15.5,0,1,0,22.134,0v-.371h6.64a2.213,2.213,0,0,0,2.213-2.213h0a2.213,2.213,0,0,0-2.213-2.213h-6.64V39.99h2.214a2.213,2.213,0,0,0,2.213-2.213h0a2.213,2.213,0,0,0-2.213-2.213h-2.214V30.988h6.64a2.213,2.213,0,0,0,2.213-2.213h0a2.213,2.213,0,0,0-2.213-2.213h-6.64V22.134h2.214a2.213,2.213,0,0,0,2.213-2.213h0a2.213,2.213,0,0,0-2.213-2.213h-2.214V13.28h6.64A2.213,2.213,0,0,0,171.415,11.067Zm-9.023,50.961a11.086,11.086,0,0,1-8.874,8.918,11.84,11.84,0,0,1-2.025.18,11.067,11.067,0,0,1-11.067-11.069,11.524,11.524,0,0,1,4.427-8.909V11.067a6.64,6.64,0,1,1,13.281,0V51.148A11.333,11.333,0,0,1,162.392,62.028Z" transform="translate(-136 0)"/></g></svg>