<svg xmlns="http://www.w3.org/2000/svg" width="511.743" height="511.7" viewBox="0 0 511.743 511.7"><g transform="translate(0 0)"><path d="M508.271,100.547c-.017-.057-.036-.112-.054-.167a74.888,74.888,0,0,0-9.065-18.864l-41-61.49A44.889,44.889,0,0,0,420.733,0H91.01A44.887,44.887,0,0,0,53.587,20.027l-41,61.488A74.892,74.892,0,0,0,3.526,100.38c-.018.055-.036.11-.053.165A74.843,74.843,0,0,0,0,123.095V466.726A45.027,45.027,0,0,0,44.977,511.7H466.766a45.027,45.027,0,0,0,44.978-44.974V123.095A74.858,74.858,0,0,0,508.271,100.547ZM270.864,29.982H420.733a14.966,14.966,0,0,1,12.476,6.675l35.528,53.29H270.864ZM78.535,36.658A14.965,14.965,0,0,1,91.01,29.982H240.879V89.947H43.006ZM481.758,466.726a15.009,15.009,0,0,1-14.992,14.991H44.977a15.009,15.009,0,0,1-14.992-14.991c0-365.3-.058-344.358.113-346.8H481.644C481.815,122.348,481.758,101.057,481.758,466.726Z" transform="translate(0 0)" fill="#0093e9"/></g><g transform="translate(149.925 179.895)"><path d="M316.917,180H194.978a44.973,44.973,0,1,0,0,89.947H316.917a44.973,44.973,0,1,0,0-89.947Zm0,59.965H194.978a14.991,14.991,0,1,1,0-29.982H316.917a14.991,14.991,0,1,1,0,29.982Z" transform="translate(-150 -180)" fill="#0093e9"/></g></svg>