<svg xmlns="http://www.w3.org/2000/svg" width="511.948" height="512" viewBox="0 0 511.948 512"><path d="M498.7,222.7a.368.368,0,0,1-.039-.039L289.8,13.809a47.129,47.129,0,0,0-66.66,0L14.4,222.551c-.07.07-.145.145-.211.215a47.114,47.114,0,0,0,31.363,80.3c.484.047.969.07,1.457.07h8.32v153.7A55.229,55.229,0,0,0,110.5,512h81.711a15,15,0,0,0,15-15V376.5a25.2,25.2,0,0,1,25.172-25.168h48.2A25.2,25.2,0,0,1,305.742,376.5V497a15,15,0,0,0,15,15h81.711a55.227,55.227,0,0,0,55.168-55.164v-153.7h7.719A47.143,47.143,0,0,0,498.7,222.7Zm-21.242,45.422a17.029,17.029,0,0,1-12.117,5.023H442.621a15,15,0,0,0-15,15v168.7A25.194,25.194,0,0,1,402.453,482H335.742V376.5a55.23,55.23,0,0,0-55.168-55.168h-48.2A55.234,55.234,0,0,0,177.207,376.5V482H110.5a25.2,25.2,0,0,1-25.168-25.164v-168.7a15,15,0,0,0-15-15H48c-.234-.016-.465-.027-.7-.031a17.116,17.116,0,0,1-11.8-29.23s0,0,.008-.008l.012-.012L244.363,35.02a17.126,17.126,0,0,1,24.227,0l208.8,208.8c.031.031.066.063.1.094A17.172,17.172,0,0,1,477.457,268.117Zm0,0" transform="translate(-0.499)" fill="#fff"/></svg>