<svg xmlns="http://www.w3.org/2000/svg" width="22.085" height="22.086" viewBox="0 0 22.085 22.086"><defs><style>.a{fill:#fff;}</style></defs><g transform="translate(0)"><path class="a" d="M21.935,4.34l0-.007a3.232,3.232,0,0,0-.391-.814L19.773.864A1.937,1.937,0,0,0,18.158,0H3.928A1.937,1.937,0,0,0,2.313.864L.543,3.518a3.233,3.233,0,0,0-.391.814l0,.007A3.231,3.231,0,0,0,0,5.313V20.145a1.943,1.943,0,0,0,1.941,1.941h18.2a1.943,1.943,0,0,0,1.941-1.941V5.313A3.231,3.231,0,0,0,21.935,4.34ZM11.69,1.294h6.468a.646.646,0,0,1,.538.288l1.533,2.3H11.69Zm-8.3.288a.646.646,0,0,1,.538-.288H10.4V3.882H1.856Zm17.4,18.562a.648.648,0,0,1-.647.647H1.941a.648.648,0,0,1-.647-.647c0-15.767,0-14.863,0-14.968H20.786C20.794,5.281,20.791,4.362,20.791,20.145Z" transform="translate(0)"/></g></svg>