<svg xmlns="http://www.w3.org/2000/svg" width="571.008" height="422.68" viewBox="0 0 571.008 422.68"><path d="M178.466,338.139h177.3V33.458H33.458v84.759h115.15V94.8a16.736,16.736,0,0,1,30.181-9.946l66.484,78.394a16.7,16.7,0,0,1-.17,21.765l-67.024,79.03c-10.063,11.876-29.423,4.64-29.432-10.782l-.039-23.516H33.458v108.4H56.852C71.894,293.324,129.208,279.414,163,313.211A64.1,64.1,0,0,1,178.466,338.139Zm2.971-129.678a16.733,16.733,0,0,0-16.1-12.176H33.736v-44.61h131.6a16.744,16.744,0,0,0,16.084-12.107l29.223,34.455Zm280.834,85.966A64.155,64.155,0,0,1,523,337.921h14.546V254.277a19.024,19.024,0,0,0-18.959-18.959H434.948a16.729,16.729,0,0,1,0-33.458h45.42l-22.6-37.923c-15.261-25.607-39.339-41.6-68.549-45.028V337.921h12.316A64.155,64.155,0,0,1,462.271,294.426Zm62.846,76.952a64.142,64.142,0,0,1-125.688,0c-72.975,0-145.98.218-218.973.218a64.141,64.141,0,0,1-125.6,0H16.729A16.727,16.727,0,0,1,0,354.868V16.729A16.727,16.727,0,0,1,16.729,0H372.494a16.727,16.727,0,0,1,16.729,16.729V85.286c40.972,3.629,75.9,25.838,97.171,61.535l32.8,55.044a52.492,52.492,0,0,1,51.816,52.412V354.65a16.727,16.727,0,0,1-16.729,16.729Zm-41.16-34.512a30.671,30.671,0,0,1,0,43.373C464.694,399.508,431.6,385.8,431.6,358.553S464.694,317.6,483.958,336.867ZM86.99,358.553c.662-17.125,13.135-30.669,30.669-30.669,27.25,0,40.955,33.092,21.686,52.356S86.99,385.8,86.99,358.553Zm0,0" fill="#36c2cf" fill-rule="evenodd"/></svg>