<svg id="Group_7862" data-name="Group 7862" xmlns="http://www.w3.org/2000/svg" width="758.581" height="635.592" viewBox="0 0 758.581 635.592">
  <path id="Path_2268" data-name="Path 2268" d="M-208.892,1395.15V1188.757a13.813,13.813,0,0,0-13.8-13.8H-465.777v-59.6a13.634,13.634,0,0,0-8.2-12.613,13.635,13.635,0,0,0-14.854,2.385l-195.009,176.588a13.816,13.816,0,0,0-4.537,10.229,13.815,13.815,0,0,0,4.537,10.227l195.009,176.588a13.724,13.724,0,0,0,9.219,3.591,13.861,13.861,0,0,0,5.636-1.206,13.632,13.632,0,0,0,8.2-12.611v-59.6h243.088A13.813,13.813,0,0,0-208.892,1395.15Zm-37.226-182.963V1371.72H-503v44l-136.674-123.763L-503,1168.189v44Z" transform="translate(688.38 -1101.541)" fill="#0b65c1"/>
  <path id="Path_2269" data-name="Path 2269" d="M160.879,1623.409-34.129,1446.821a13.623,13.623,0,0,0-14.855-2.383,13.629,13.629,0,0,0-8.2,12.61v59.6H-300.276a13.811,13.811,0,0,0-13.8,13.8V1736.83a13.815,13.815,0,0,0,13.8,13.8H-57.188v59.6a13.634,13.634,0,0,0,8.2,12.611,13.875,13.875,0,0,0,5.635,1.2,13.748,13.748,0,0,0,9.22-3.589l195.009-176.588a13.8,13.8,0,0,0,0-20.455Zm-437.726,89.99V1553.872H-19.961v-44l136.675,123.763L-19.961,1757.4v-44Z" transform="translate(593.166 -1188.45)" fill="#0b65c1"/>
</svg>
