<svg xmlns="http://www.w3.org/2000/svg" width="449.91" height="511.854" viewBox="0 0 449.91 511.854"><g transform="translate(89.982)"><path d="M255.973,0C181.549,0,121,60.544,121,134.962s60.549,134.962,134.973,134.962,134.973-60.544,134.973-134.962S330.4,0,255.973,0Zm0,239.932a104.97,104.97,0,1,1,104.979-104.97A105.094,105.094,0,0,1,255.973,239.932Z" transform="translate(-121)" fill="#0093e9"/></g><g transform="translate(0 299.915)"><path d="M423.887,358.178C386.935,320.661,337.948,300,285.949,300H225.961c-52,0-100.986,20.661-137.938,58.178A196.68,196.68,0,0,0,31,496.944a15,15,0,0,0,15,15H465.913a15,15,0,0,0,15-15A196.681,196.681,0,0,0,423.887,358.178ZM61.654,481.949c7.514-85.061,78.335-151.957,164.307-151.957h59.988c85.972,0,156.794,66.9,164.307,151.957Z" transform="translate(-31 -300)" fill="#0093e9"/></g></svg>