<svg xmlns="http://www.w3.org/2000/svg" width="508.789" height="509.441" viewBox="0 0 508.789 509.441"><path d="M173.406,274.834c28.484,0,95.2-96.065,95.2-149.616a95.2,95.2,0,1,0-190.4,0C78.206,171.7,139.638,274.834,173.406,274.834Zm0-199.042a49.428,49.428,0,1,1-49.345,49.426A49.392,49.392,0,0,1,173.406,75.792Zm13.815,35.588a19.6,19.6,0,0,1,0,27.676c-12.266,12.287-33.348,3.55-33.348-13.838S174.955,99.093,187.221,111.38ZM64.841,190.228C85.045,235.964,133.963,304.7,173.406,304.7s88.36-68.731,108.565-114.467H317V434.287H159.02c-17.266-51.534-90.918-52.055-108.363,0H29.812V190.228ZM292.9,160.367c59.457,0,53.914-6.361,53.914,48.248,36.508,3.239,67.628,23.061,86.583,54.92l29.226,49.127a46.812,46.812,0,0,1,46.17,46.778v89.583c0,19.095-23.632,14.931-40.894,14.931-12.29,60.644-99.7,60.644-111.989,0l-195.112.194c-12.46,60.391-99.451,60.391-111.911,0H14.906A14.917,14.917,0,0,1,0,449.218V175.3a14.917,14.917,0,0,1,14.906-14.93H53.918C29.808,75.492,93.29,0,173.406,0S317.007,75.492,292.9,160.367ZM466.02,434.093h12.957V359.44a16.965,16.965,0,0,0-16.893-16.921h-74.53c-19.626,0-19.626-29.861,0-29.861h40.471c-20.965-35.238-34.8-68.579-81.214-74.034V434.093h10.974C375.346,382.3,448.622,382.8,466.02,434.093Zm-34.8-.941c-17.165-17.2-46.651-4.965-46.651,19.355s29.486,36.553,46.651,19.355A27.406,27.406,0,0,0,431.224,433.152ZM77.592,450.365c-1.056,27.427,29.765,38.333,46.569,21.5,17.169-17.193,4.957-46.728-19.323-46.728A27.347,27.347,0,0,0,77.592,450.365Zm0,0" fill="#0159ea" fill-rule="evenodd"/></svg>