<svg xmlns="http://www.w3.org/2000/svg" width="511.989" height="479.959" viewBox="0 0 511.989 479.959"><g transform="translate(0 63.786)"><g transform="translate(0 0)"><path d="M398.627,304.1A15.982,15.982,0,0,0,382.682,320.1v144.06H31.89V112.018H175.4A16.007,16.007,0,0,0,175.4,80H15.945A15.982,15.982,0,0,0,0,96.011v384.16a15.982,15.982,0,0,0,15.945,16.007H398.627a15.982,15.982,0,0,0,15.945-16.007V320.1A15.982,15.982,0,0,0,398.627,304.1Z" transform="translate(0 -80.005)" fill="#fff"/></g></g><g transform="translate(129.308 0)"><g transform="translate(0 0)"><path d="M505.229,131.565,377.668,19.959a15.938,15.938,0,0,0-26.437,11.99V79.78h-9.44c-102.495,0-190.7,76.5-205.213,177.964L128.16,316.7a15.938,15.938,0,0,0,10.332,17.219,16.243,16.243,0,0,0,5.453.957,15.911,15.911,0,0,0,13.522-7.493l23.5-37.627A174.508,174.508,0,0,1,329.737,207.33h21.494v47.831a15.938,15.938,0,0,0,26.437,11.99L505.229,155.544a15.908,15.908,0,0,0,0-23.979ZM383.122,220.021V191.386a15.95,15.95,0,0,0-15.945-15.944H329.737a205.948,205.948,0,0,0-159.419,74.712C187.539,170.4,259.2,111.667,341.792,111.667h25.385a15.95,15.95,0,0,0,15.945-15.944V67.089l87.411,76.466Z" transform="translate(-128.001 -15.995)" fill="#fff"/></g></g></svg>