<svg xmlns="http://www.w3.org/2000/svg" width="511.992" height="511.993" viewBox="0 0 511.992 511.993"><g transform="translate(0 0)"><path d="M508.518,100.6c-.017-.057-.036-.112-.054-.167A74.935,74.935,0,0,0,499.4,81.563L458.379,20.038A44.91,44.91,0,0,0,420.937,0H91.055A44.908,44.908,0,0,0,53.613,20.039L12.6,81.562a74.937,74.937,0,0,0-9.069,18.876c-.018.055-.036.11-.053.165A74.892,74.892,0,0,0,0,123.165V466.994a45.05,45.05,0,0,0,45,45H466.993a45.05,45.05,0,0,0,45-45V123.165A74.907,74.907,0,0,0,508.518,100.6ZM271,30H420.937a14.973,14.973,0,0,1,12.482,6.679L468.965,90H271ZM78.573,36.68A14.972,14.972,0,0,1,91.055,30H241V90H43.027Zm403.42,430.314a15.017,15.017,0,0,1-15,15H45a15.017,15.017,0,0,1-15-15c0-365.511-.058-344.555.113-347H481.879C482.049,122.418,481.993,101.115,481.993,466.994Z" transform="translate(0 0)" fill="#0093e9"/></g><g transform="translate(149.998 179.998)"><path d="M317,180H195a45,45,0,1,0,0,90H317a45,45,0,1,0,0-90Zm0,60H195a15,15,0,0,1,0-30H317a15,15,0,1,1,0,30Z" transform="translate(-150 -180)" fill="#0093e9"/></g></svg>