<svg id="mail" xmlns="http://www.w3.org/2000/svg" width="511.979" height="360" viewBox="0 0 511.979 360">
  <g id="Group_2368" data-name="Group 2368" transform="translate(0 0)">
    <path id="Path_2262" data-name="Path 2262" d="M466.981,76H45A45.066,45.066,0,0,0,0,121V391a45.067,45.067,0,0,0,45,45H466.981a45.05,45.05,0,0,0,45-45V121A45.043,45.043,0,0,0,466.981,76Zm-6.3,30L287.808,277.967a45,45,0,0,1-63.665-.028L51.3,106ZM30,384.894V127.125L159.632,256.08ZM51.319,406,180.9,277.237l22.058,21.943a74.995,74.995,0,0,0,106.034.028l22.086-21.971L460.66,406ZM481.98,384.894,352.348,256.08,481.98,127.125Z" transform="translate(0 -76)" fill="#707070"/>
  </g>
</svg>
