<svg xmlns="http://www.w3.org/2000/svg" width="20.281" height="22" viewBox="0 0 20.281 22"><defs><style>.a{fill:#fff;fill-rule:evenodd;}</style></defs><path class="a" d="M10.7,1.139V8.594h3.738V1.139a1.869,1.869,0,0,0-3.738,0ZM1.5,4.392a.644.644,0,0,1,.912-.911l.353.353L3.908,2.694a1.994,1.994,0,1,0,.719,1.1l-1.4,1.4a.645.645,0,0,1-.912,0ZM4.823,1.778,5.633.968a.644.644,0,0,1,.911.911l-.92.92a3.285,3.285,0,1,1-.8-1.022ZM-1.336,15.254a.645.645,0,0,0-.645.645.645.645,0,0,0,.645.645A.645.645,0,0,0-.691,15.9.645.645,0,0,0-1.336,15.254Zm2.578,1.289a.645.645,0,0,1,0-1.289h6.23a.645.645,0,0,1,0,1.289Zm-2.578-3.867a.644.644,0,0,0-.645.645.645.645,0,0,0,.645.645.645.645,0,0,0,.645-.645A.645.645,0,0,0-1.336,12.676Zm2.578,1.289a.645.645,0,0,1,0-1.289h6.23a.645.645,0,0,1,0,1.289ZM10.7,9.883v9.453a.644.644,0,0,1-.645.645H-3.914a.644.644,0,0,1-.645-.645V1.074A3.1,3.1,0,0,1-1.465-2.02H12.564a3.166,3.166,0,0,1,3.158,3.158v8.1a.645.645,0,0,1-.645.645ZM10.022-.73a3.14,3.14,0,0,0-.616,1.869V18.691H-3.27V1.074a1.809,1.809,0,0,1,1.8-1.8ZM-1.336,10.1a.645.645,0,0,0-.645.645.645.645,0,0,0,.645.645.645.645,0,0,0,.645-.645A.645.645,0,0,0-1.336,10.1Zm2.578,1.289h6.23a.645.645,0,0,0,0-1.289H1.242a.645.645,0,0,0,0,1.289Zm0,0" transform="translate(4.559 2.02)"/></svg>