<svg xmlns="http://www.w3.org/2000/svg" width="24.669" height="24.667" viewBox="0 0 24.669 24.667"><defs><style>.a{fill:#707070;}</style></defs><path class="a" d="M21.836.964a3.4,3.4,0,0,0-4.8,0l-1.2,1.208L3.043,14.956l-.027.027C3.01,14.99,3.01,15,3,15c-.014.02-.034.041-.047.061s-.007.007-.007.014-.02.034-.034.054-.007.013-.013.02-.014.034-.021.054-.007.007-.007.014L.036,23.748A.668.668,0,0,0,.2,24.44a.683.683,0,0,0,.482.2A.8.8,0,0,0,.9,24.6l8.527-2.845c.007,0,.007,0,.014-.007a.246.246,0,0,0,.061-.027.024.024,0,0,0,.014-.007c.02-.014.047-.027.068-.041s.041-.034.061-.047.013-.007.013-.014.021-.013.027-.027L23.676,7.6a3.4,3.4,0,0,0,0-4.8ZM9.208,20.163,4.483,15.438,16.31,3.611l4.725,4.725ZM3.817,16.694l4.128,4.128-6.2,2.064Zm18.9-10.048L22,7.373,17.274,2.647,18,1.921a2.036,2.036,0,0,1,2.878,0l1.847,1.847A2.043,2.043,0,0,1,22.719,6.646Zm0,0" transform="translate(0 0.029)"/></svg>