<svg xmlns="http://www.w3.org/2000/svg" width="22.9" height="22.9" viewBox="0 0 22.9 22.9"><defs><style>.a{fill:#fff;}</style></defs><g transform="translate(0)"><path class="a" d="M22.744,4.5l0-.007a3.352,3.352,0,0,0-.406-.844L20.5.9A2.009,2.009,0,0,0,18.827,0H4.073A2.009,2.009,0,0,0,2.4.9L.563,3.648a3.352,3.352,0,0,0-.406.844l0,.007A3.35,3.35,0,0,0,0,5.509V20.887A2.015,2.015,0,0,0,2.013,22.9H20.887A2.015,2.015,0,0,0,22.9,20.887V5.509A3.35,3.35,0,0,0,22.744,4.5ZM12.121,1.342h6.706a.67.67,0,0,1,.558.3l1.59,2.385H12.121Zm-8.606.3a.67.67,0,0,1,.558-.3h6.706V4.025H1.924ZM21.558,20.887a.672.672,0,0,1-.671.671H2.013a.672.672,0,0,1-.671-.671c0-16.348,0-15.411.005-15.52H21.553C21.56,5.475,21.558,4.523,21.558,20.887Z" transform="translate(0)"/></g></svg>