<svg xmlns="http://www.w3.org/2000/svg" width="636.755" height="511.168" viewBox="0 0 636.755 511.168"><g transform="translate(-0.137 0.262)"><path d="M175.152,331.86H349.158V32.836H32.836c.1,110.865-.228,203.325,0,299.024H55.8c14.763-43.983,71.013-57.634,104.178-24.465A62.912,62.912,0,0,1,175.152,331.86Zm278.535-42.9a62.963,62.963,0,0,1,59.605,42.687h14.276V249.555a18.671,18.671,0,0,0-18.607-18.607H426.87a16.418,16.418,0,0,1,0-32.836h44.577L449.27,160.893c-14.977-25.132-38.608-40.827-67.276-44.192V331.646h12.087A62.963,62.963,0,0,1,453.687,288.959Zm61.679,75.523a62.951,62.951,0,0,1-123.354,0c-71.62,0-143.269.214-214.906.214a62.95,62.95,0,0,1-123.264,0H16.418A16.417,16.417,0,0,1,0,348.278V16.418A16.417,16.417,0,0,1,16.418,0H365.576a16.417,16.417,0,0,1,16.418,16.418V83.7c40.212,3.562,74.489,25.358,95.366,60.392l32.191,54.022A51.517,51.517,0,0,1,560.4,249.555v98.509a16.417,16.417,0,0,1-16.418,16.418Zm-40.4-33.871a30.1,30.1,0,0,1,0,42.567c-18.906,18.911-51.384,5.46-51.384-21.284S456.064,311.7,474.97,330.611ZM85.374,351.9c.65-16.807,12.891-30.1,30.1-30.1,26.744,0,40.194,32.477,21.284,51.384S85.374,378.639,85.374,351.9Zm0,0" transform="translate(76.487 96.075)" fill="#2BA3AE" fill-rule="evenodd"/><g transform="translate(0.137 -0.262)" fill="#fff" stroke="#2BA3AE" stroke-width="29"><circle cx="139" cy="139" r="139" stroke="none"/><circle cx="139" cy="139" r="124.5" fill="none"/></g><path d="M4072,19470.641v63.318l42.467,26.332" transform="translate(-3933.507 -19390.75)" fill="none" stroke="#2BA3AE" stroke-linecap="round" stroke-width="29"/></g></svg>