<svg xmlns="http://www.w3.org/2000/svg" width="512" height="511.813" viewBox="0 0 512 511.813"><path d="M174.5,276.113c28.664,0,95.8-96.512,95.8-150.312a95.8,95.8,0,0,0-191.6,0C78.7,172.5,140.52,276.113,174.5,276.113Zm0-199.969A49.658,49.658,0,1,1,124.844,125.8,49.663,49.663,0,0,1,174.5,76.145ZM188.4,111.9a19.665,19.665,0,0,1,0,27.8c-12.344,12.344-33.559,3.566-33.559-13.9S176.059,99.555,188.4,111.9ZM65.25,191.113c20.332,45.949,69.559,115,109.25,115s88.918-69.051,109.25-115H319v245.2H160.023c-17.375-51.773-91.492-52.3-109.047,0H30v-245.2Zm229.5-30c59.832,0,54.254-6.391,54.254,48.473,36.738,3.254,68.055,23.168,87.129,55.176l29.41,49.355a47.067,47.067,0,0,1,46.461,47v90c0,19.184-23.781,15-41.152,15-12.367,60.926-100.328,60.926-112.7,0l-196.344.2c-12.539,60.672-100.078,60.672-112.617,0H15a15,15,0,0,1-15-15v-275.2a15,15,0,0,1,15-15H54.258C30,75.844,93.879,0,174.5,0S319.008,75.844,294.746,161.113Zm174.215,275H482v-75a17.058,17.058,0,0,0-17-17H390c-19.75,0-19.75-30,0-30h40.727c-21.1-35.4-35.016-68.9-81.727-74.379V436.113h11.043C377.715,384.082,451.453,384.586,468.961,436.113Zm-35.016-.945C416.672,417.891,387,430.18,387,454.613s29.672,36.723,46.945,19.445A27.5,27.5,0,0,0,433.945,435.168ZM78.082,452.461c-1.062,27.555,29.953,38.512,46.863,21.6,17.277-17.273,4.988-46.945-19.445-46.945A27.5,27.5,0,0,0,78.082,452.461Zm0,0" fill="#0159EA" fill-rule="evenodd"/></svg>