<svg id="telephone" xmlns="http://www.w3.org/2000/svg" width="511.957" height="512" viewBox="0 0 511.957 512">
  <g id="Group_8703" data-name="Group 8703" transform="translate(0 0)">
    <path id="Path_7381" data-name="Path 7381" d="M498.807,377.633,435.16,313.984a45.056,45.056,0,0,0-63.646,0l-28.93,28.931a34.136,34.136,0,0,1-48.213.005L168.976,217.413a34.078,34.078,0,0,1,0-48.219l28.93-28.931a44.981,44.981,0,0,0-.017-63.665L134.26,13.166a45.041,45.041,0,0,0-63.6-.046L47.469,36.111c-63.277,63.279-63.277,166.242,0,229.519l198.684,198.8a162.192,162.192,0,0,0,229.512,0l23.145-23.145A45.058,45.058,0,0,0,498.807,377.633ZM91.829,34.382a15.024,15.024,0,0,1,21.232.016L176.691,97.83a15,15,0,0,1,0,21.216l-10.609,10.608L81.276,44.844Zm175.54,408.831L68.684,244.415A131.9,131.9,0,0,1,60.409,66.409l84.561,84.564a64.039,64.039,0,0,0,2.787,87.653l125.391,125.5,0,0a64.03,64.03,0,0,0,87.652,2.792l84.563,84.566A131.634,131.634,0,0,1,267.369,443.213Zm210.223-23.148-10.609,10.609-84.862-84.866L392.729,335.2a15.019,15.019,0,0,1,21.216,0l63.646,63.649A15.019,15.019,0,0,1,477.593,420.065Z" transform="translate(-0.011 0)" fill="#707070"/>
  </g>
</svg>
