<svg id="Group_7861" data-name="Group 7861" xmlns="http://www.w3.org/2000/svg" width="635.585" height="635.598" viewBox="0 0 635.585 635.598">
  <g id="package" transform="translate(0 0)">
    <g id="Group_342" data-name="Group 342">
      <g id="Group_341" data-name="Group 341">
        <path id="Path_318" data-name="Path 318" d="M631.272,124.892c-.021-.071-.045-.139-.067-.207a93.024,93.024,0,0,0-11.258-23.431L569.03,24.875A55.75,55.75,0,0,0,522.55,0H113.035a55.748,55.748,0,0,0-46.48,24.876L15.638,101.252A93.03,93.03,0,0,0,4.38,124.685c-.022.068-.045.137-.066.2A92.974,92.974,0,0,0,0,152.9V579.734A55.926,55.926,0,0,0,55.862,635.6H579.723a55.926,55.926,0,0,0,55.862-55.863V152.9A92.991,92.991,0,0,0,631.272,124.892ZM336.413,37.242H522.55a18.588,18.588,0,0,1,15.495,8.291l44.126,66.193H336.413ZM97.54,45.535a18.586,18.586,0,0,1,15.495-8.293H299.172v74.484H53.414Zm500.8,534.2a18.642,18.642,0,0,1-18.621,18.621H55.862a18.642,18.642,0,0,1-18.621-18.621c0-453.752-.072-427.737.14-430.766H598.2C598.414,151.972,598.344,125.526,598.344,579.734Z" transform="translate(0)" fill="#01ceea"/>
      </g>
    </g>
  </g>
  <g id="Group_2376" data-name="Group 2376" transform="translate(190.319 253.692)">
    <g id="Group_2374" data-name="Group 2374" transform="translate(0 0)">
      <path id="Path_2264" data-name="Path 2264" d="M432.76,273.446a26.686,26.686,0,0,0-37.736,0L275.878,392.594l-45.815-45.816a26.684,26.684,0,0,0-37.737,37.737L257.013,449.2a26.677,26.677,0,0,0,37.734,0L432.76,311.183A26.685,26.685,0,0,0,432.76,273.446Z" transform="translate(-184.512 -265.632)" fill="#01ceea"/>
    </g>
  </g>
</svg>
