<svg xmlns="http://www.w3.org/2000/svg" width="634.888" height="408.899" viewBox="0 0 634.888 408.899"><g transform="translate(0 0)"><g transform="translate(0 83.726)"><g transform="translate(0 0)"><path d="M322.965,63.9c-.011-.036-.023-.071-.034-.106a47.589,47.589,0,0,0-5.76-11.988l-26.05-39.075A28.523,28.523,0,0,0,267.342,0H57.83A28.522,28.522,0,0,0,34.05,12.727L8,51.8a47.594,47.594,0,0,0-5.76,11.988c-.011.035-.023.07-.034.1A47.565,47.565,0,0,0,0,78.224V296.593a28.612,28.612,0,0,0,28.58,28.58H296.592a28.612,28.612,0,0,0,28.58-28.58V78.224A47.576,47.576,0,0,0,322.965,63.9ZM172.112,19.053h95.229a9.51,9.51,0,0,1,7.927,4.242l22.575,33.864H172.112ZM49.9,23.3a9.509,9.509,0,0,1,7.927-4.242h95.229V57.159H27.327Zm256.216,273.3a9.537,9.537,0,0,1-9.527,9.526H28.58a9.537,9.537,0,0,1-9.527-9.526c0-232.14-.037-218.831.072-220.38H306.046C306.155,77.749,306.118,64.219,306.118,296.593Z" transform="translate(0 0)" fill="#2ba3ae"/></g><g transform="translate(95.265 114.318)"><path d="M256.062,180H178.579a28.58,28.58,0,1,0,0,57.159h77.482a28.58,28.58,0,1,0,0-57.159Zm0,38.106H178.579a9.527,9.527,0,0,1,0-19.053h77.482a9.527,9.527,0,0,1,0,19.053Z" transform="translate(-150 -180)" fill="#2ba3ae"/></g></g><g transform="translate(225.99 0)"><rect width="376.268" height="304.599" transform="translate(14.619 86.286)" fill="#e1f4f6"/><g transform="translate(119.794 143.753)"><path d="M283.371,180H185.938a35.938,35.938,0,1,0,0,71.877h97.433a35.938,35.938,0,1,0,0-71.877Zm0,47.918H185.938a11.98,11.98,0,0,1,0-23.959h97.433a11.98,11.98,0,0,1,0,23.959Z" transform="translate(-150 -180)" fill="#2ba3ae"/></g><g transform="translate(0)"><path d="M406.124,80.347c-.014-.046-.029-.089-.043-.133a59.847,59.847,0,0,0-7.243-15.074L366.08,16a35.867,35.867,0,0,0-29.9-16H72.72a35.865,35.865,0,0,0-29.9,16L10.06,65.139A59.848,59.848,0,0,0,2.818,80.214c-.014.044-.029.088-.042.132A59.812,59.812,0,0,0,0,98.365v274.6A35.979,35.979,0,0,0,35.938,408.9H372.96A35.979,35.979,0,0,0,408.9,372.961V98.365A59.824,59.824,0,0,0,406.124,80.347Zm-189.7-56.388h119.75a11.958,11.958,0,0,1,9.969,5.334l28.388,42.584H216.428ZM62.751,29.294a11.957,11.957,0,0,1,9.968-5.335H192.47V71.877H34.363ZM384.939,372.961A11.993,11.993,0,0,1,372.96,384.94H35.938a11.993,11.993,0,0,1-11.979-11.979c0-291.912-.046-275.176.09-277.125h360.8C384.985,97.768,384.939,80.754,384.939,372.961Z" transform="translate(0 0)" fill="#2ba3ae"/></g></g></g></svg>