<svg xmlns="http://www.w3.org/2000/svg" width="512" height="512" viewBox="0 0 512 512">
  <path id="path" d="M465.627,281.773c-11.636,97.745-88.436,174.545-183.855,183.855v25.6c0,13.964-9.309,23.273-23.273,23.273s-23.273-9.309-23.273-23.273v-25.6A203.632,203.632,0,0,1,51.373,281.773h-25.6C11.809,281.773,2.5,272.464,2.5,258.5s9.309-23.273,23.273-23.273h25.6A203.632,203.632,0,0,1,235.227,51.373v-25.6c0-13.964,9.309-23.273,23.273-23.273s23.273,9.309,23.273,23.273v25.6c97.745,11.636,174.545,88.436,183.855,183.855h25.6c13.964,0,23.273,9.309,23.273,23.273s-9.309,23.273-23.273,23.273ZM258.5,421.409c90.764,0,162.909-72.145,162.909-162.909S349.264,95.591,258.5,95.591,95.591,167.736,95.591,258.5,167.736,421.409,258.5,421.409Zm0-69.818c-51.2,0-93.091-41.891-93.091-93.091S207.3,165.409,258.5,165.409,351.591,207.3,351.591,258.5,309.7,351.591,258.5,351.591Zm0-46.546A46.545,46.545,0,1,0,211.955,258.5,46.682,46.682,0,0,0,258.5,305.045Z" transform="translate(-2.5 -2.5)" fill="#fff"/>
</svg>
