<svg xmlns="http://www.w3.org/2000/svg" width="19.998" height="19.998" viewBox="0 0 19.998 19.998"><defs><style>.a{fill:#707070;}</style></defs><path class="a" d="M18.24,2.343h-.586V1.758a1.758,1.758,0,1,0-3.515,0v.586H11.8V1.758a1.758,1.758,0,1,0-3.515,0v.586H5.859V1.758a1.758,1.758,0,0,0-3.515,0v.586H1.758A1.76,1.76,0,0,0,0,4.1V18.24A1.76,1.76,0,0,0,1.758,20H18.24A1.76,1.76,0,0,0,20,18.24V4.1A1.76,1.76,0,0,0,18.24,2.343Zm-2.929-.586a.586.586,0,0,1,1.172,0V4.1a.586.586,0,0,1-1.172,0Zm-5.859,0a.586.586,0,0,1,1.172,0V4.1a.586.586,0,1,1-1.172,0Zm-5.937,0a.586.586,0,0,1,1.172,0V4.1a.586.586,0,0,1-1.172,0ZM18.826,18.24a.587.587,0,0,1-.586.586H1.758a.587.587,0,0,1-.586-.586V8.28H18.826Zm0-11.132H1.172V4.1a.587.587,0,0,1,.586-.586h.586V4.1a1.758,1.758,0,0,0,3.515,0V3.515H8.28V4.1a1.758,1.758,0,1,0,3.515,0V3.515h2.343V4.1a1.758,1.758,0,1,0,3.515,0V3.515h.586a.587.587,0,0,1,.586.586Z"/><g transform="translate(2.343 9.452)"><path class="a" d="M74.725,242H60.586a.586.586,0,0,0-.586.586v7.03a.586.586,0,0,0,.586.586H74.725a.586.586,0,0,0,.586-.586v-7.03A.586.586,0,0,0,74.725,242Zm-11.21,7.03H61.172v-2.344h2.343Zm0-3.515H61.172v-2.343h2.343Zm3.593,3.515H64.687v-2.344h2.422Zm0-3.515H64.687v-2.343h2.422Zm3.515,3.515H68.28v-2.344h2.343Zm0-3.515H68.28v-2.343h2.343Zm3.515,3.515H71.8v-2.344h2.343Zm0-3.515H71.8v-2.343h2.343Z" transform="translate(-60 -242)"/></g></svg>