<svg xmlns="http://www.w3.org/2000/svg" width="409.878" height="511.978" viewBox="0 0 409.878 511.978"><path d="M220.432,53.056V15a15,15,0,0,0-30,0V53.056A56.019,56.019,0,0,0,149.5,106.925v52.138a56.019,56.019,0,0,0,40.932,53.869V496.978a15,15,0,0,0,30,0V212.932a56.015,56.015,0,0,0,40.932-53.869V106.925A56.015,56.015,0,0,0,220.432,53.056Zm10.931,106.007a25.931,25.931,0,0,1-51.862,0V106.925a25.931,25.931,0,0,1,51.862,0Zm0,0" transform="translate(-0.494)" fill="#fff"/><path d="M71.433,157.255V15a15,15,0,0,0-30,0V157.255A56.015,56.015,0,0,0,.5,211.12v52.138a56.019,56.019,0,0,0,40.931,53.869V496.978a15,15,0,0,0,30,0V317.127a56.015,56.015,0,0,0,40.931-53.869V211.12A56.007,56.007,0,0,0,71.433,157.255Zm10.93,106a25.931,25.931,0,0,1-51.862,0V211.12a25.931,25.931,0,0,1,51.862,0Zm0,0" transform="translate(-0.5)" fill="#fff"/><path d="M369.434,276.172V15a15,15,0,0,0-30,0V276.172A56.019,56.019,0,0,0,298.5,330.04v52.138a56.019,56.019,0,0,0,40.932,53.869v60.931a15,15,0,0,0,30,0V436.044a56.011,56.011,0,0,0,40.932-53.865V330.04A56.016,56.016,0,0,0,369.434,276.172Zm10.93,106.007a25.931,25.931,0,0,1-51.862,0V330.04a25.931,25.931,0,1,1,51.862,0Zm0,0" transform="translate(-0.487)" fill="#fff"/></svg>