<svg xmlns="http://www.w3.org/2000/svg" width="490.034" height="391.988" viewBox="0 0 490.034 391.988"><g transform="translate(0 -49.023)"><path d="M435.667,54.311a18.016,18.016,0,0,0-25.5,0l-64,64c-79.3-36-163.9-27.2-244.6,25.5-60.1,39.2-96.6,88.5-98.1,90.6a18.158,18.158,0,0,0,.5,22c34.2,42,70,74.7,106.6,97.5l-56.3,56.3a18,18,0,1,0,25.4,25.5l356-355.9A18.107,18.107,0,0,0,435.667,54.311Zm-235.2,209.7a46.816,46.816,0,0,1-3.9-19,48.469,48.469,0,0,1,67.5-44.6Zm90.2-90.1a84.375,84.375,0,0,0-116.6,116.6l-37.1,37.1c-32.5-18.8-64.5-46.6-95.6-82.9,13.3-15.6,41.4-45.7,79.9-70.8,66.6-43.4,132.9-52.8,197.5-28.1Z"/><path d="M486.067,233.611c-24.7-30.4-50.3-56-76.3-76.3a18.054,18.054,0,1,0-22.3,28.4c20.6,16.1,41.2,36.1,61.2,59.5a394.592,394.592,0,0,1-66,61.3c-60.1,43.7-120.8,59.5-180.3,46.9a17.985,17.985,0,1,0-7.4,35.2,224.085,224.085,0,0,0,46.8,4.9,237.916,237.916,0,0,0,71.1-11.1c31.1-9.7,62-25.7,91.9-47.5,50.4-36.9,80.5-77.6,81.8-79.3A18.158,18.158,0,0,0,486.067,233.611Z"/></g></svg>