<svg xmlns="http://www.w3.org/2000/svg" width="484.839" height="485.017" viewBox="0 0 484.839 485.017"><g transform="translate(-0.089)"><path d="M361.2,68.9A54.894,54.894,0,1,0,400.02,84.977,54.536,54.536,0,0,0,361.2,68.9Zm17.6,72.495a24.893,24.893,0,1,1,0-35.2A24.731,24.731,0,0,1,378.807,141.394Z"/><path d="M441.961,43.036A146.955,146.955,0,0,0,202.1,202.734L.254,404.584.089,484.852l144.562.165V429.3h55.705V373.59h55.705V309.1l26.212-26.212a147.958,147.958,0,0,0,55.8,10.976A145.957,145.957,0,0,0,441.961,250.83C499.25,193.541,499.25,100.325,441.961,43.036ZM420.748,229.617a116.157,116.157,0,0,1-82.676,34.245,117.524,117.524,0,0,1-52.353-12.333l-9.672-4.842-49.986,49.985V343.59H170.356v55.7H114.651v55.688l-84.5-.1.078-37.85L238.311,208.95l-4.842-9.672a116.946,116.946,0,1,1,187.279,30.339Z"/></g></svg>