<svg xmlns="http://www.w3.org/2000/svg" width="505.861" height="512.26" viewBox="0 0 505.861 512.26">
  <g id="Group_7860" data-name="Group 7860" transform="translate(1521.841 -320.629)">
    <path id="Path_6351" data-name="Path 6351" d="M-1020.456,806.786c-3.58-3.528-7.131-7.011-10.707-10.468-1.794-1.732-2.288-3.166-1.374-5.76,6.164-17.445,3.729-33.71-9.022-47.264-14.653-15.575-29.831-30.695-45.356-45.4-13.623-12.9-29.9-15.544-47.5-9.185-2.586.935-4,.47-5.763-1.344-6.4-6.585-13.056-12.931-19.365-19.6a8.217,8.217,0,0,1-2.221-5.58c-.162-25.839-.651-51.7.149-77.51.288-9.48-2.958-14.386-10.72-19.28-26.776-16.888-52.966-34.7-79.456-52.044-3.887-2.547-1.83-6.1-2.059-9.2-.069-.958,1.723-2.434,2.975-3.049,17.3-8.521,26.826-22.246,27.129-41.617.332-21.274.429-42.564-.042-63.834-.424-18.9-9.831-32.5-26.879-40.58-2.721-1.29-3.467-2.737-3.421-5.526.071-4.61.086-9.223.082-13.9a15.009,15.009,0,0,0-15.069-15.011l-.416,0a14.993,14.993,0,0,0-14.924,14.964c-.008,5.154,0,10.527.071,14.086a5.857,5.857,0,0,1-3.376,5.392c-16.909,8.054-26.372,21.6-26.908,40.272q-.949,32.593,0,65.232c.527,18.528,10.005,31.908,26.57,40.23,1.569.788,3.939.818,3.595,3.493-.429,3.337,1.372,6.937-2.776,9.67-28.289,18.64-56.392,37.565-84.656,56.249-2.815,1.862-3.723,3.828-3.708,7.1q.189,42.44-.025,84.884a9.127,9.127,0,0,1-2.231,5.477c-6.774,6.922-13.867,13.529-20.691,20.4-1.8,1.812-3.255,1.822-5.511,1.006-17.884-6.453-34.285-3.664-48.083,9.467q-23.114,22-45.118,45.168c-11.791,12.377-14.924,30.363-9.047,46.414,1.12,3.071.735,4.741-1.458,6.83-3.252,3.1-6.463,6.233-9.61,9.338a14.992,14.992,0,0,0-.16,21.18l.441.45a15,15,0,0,0,21.357.048q5.046-5.078,10.091-10.219c1.435-1.464,2.614-2.111,4.849-1.287,18.861,6.959,35.655,3.373,49.982-10.663q21.166-20.733,41.891-41.917c13.8-14.185,17.09-30.861,10.377-49.447-1.019-2.821.01-4.057,3.555-6.523a49.318,49.318,0,0,0,11.186-10.893c3.729-4.978,5.271-5.795,8.751-3.456,27.345,18.375,54.817,36.564,82.149,54.952a6.674,6.674,0,0,0,7.423.019c27.73-18.442,55.579-36.7,83.328-55.111,2.958-1.966,4.412-1.52,7.4,2.473a62.2,62.2,0,0,0,12.487,12.337c2.767,2.086,3.028,3.614,2.124,6.14-6.459,18.023-3.612,34.482,9.65,48.361q21.437,22.43,43.891,43.878c13.762,13.167,30.146,16.074,48.045,9.833,2.715-.948,4.211-.444,6.062,1.462,2.574,2.645,6.652,6.725,10.537,10.592a15,15,0,0,0,21.122.033l.416-.409A15.009,15.009,0,0,0-1020.456,806.786Zm-389.551-64.741c-14.327,14.4-28.579,28.873-43.175,42.995-2.654,2.57-6.774,3.628-8.873,4.7-8.106-.758-12.993-3.552-15.516-9.5-2.58-6.086-1.431-11.8,3.1-16.508,7.118-7.4,14.478-14.573,21.744-21.834,7.1-7.1,14.144-14.249,21.336-21.249a14.405,14.405,0,0,1,15.874-3.349c6.036,2.214,9.3,6.857,9.776,13.285A14.269,14.269,0,0,1-1410.008,742.045Zm125.662-344.8c.025-9.067,6.683-15.851,15.26-15.82,8.558.03,14.974,6.832,15.016,16.026.046,10.17.013,20.339.013,30.508s.04,20.34-.013,30.509c-.044,9.148-6.53,16.019-15.035,16.053-8.482.035-15.216-6.872-15.245-15.91Q-1284.45,427.929-1284.345,397.246Zm-.067,302.711c0,1.111-.135,2.225-.237,3.837-1.332-.781-2.227-1.244-3.061-1.8-17.979-11.964-35.924-23.981-53.955-35.863-2.5-1.649-3.58-3.385-3.542-6.495.17-15.183.059-30.369.048-45.553v-4.478c1.4.734,2.418,1.157,3.318,1.757q27.113,18.035,54.228,36.066c2.254,1.49,3.313,3.067,3.284,5.923C-1284.482,668.886-1284.4,684.422-1284.412,699.957Zm18.418-78.653c-1.666,1.1-3.078,2.114-5.32.606-19.75-13.3-39.582-26.478-59.389-39.7-.469-.313-.872-.725-1.872-1.569,15.909-10.617,31.539-21.049,48.175-32.149v2.058a15.191,15.191,0,0,0,14.55,15.169q.656,0,1.3,0a15.193,15.193,0,0,0,14.539-15.019c0-.778.006-1.569.006-2.388,16.687,10.984,32.627,21.473,49.014,32.259a29.012,29.012,0,0,1-2.54,2.18Q-1236.748,602.045-1265.995,621.3Zm71.041,44.289c-18.674,12.212-37.273,24.536-55.9,36.817-.756.5-1.586.893-2.981,1.672-.086-1.654-.185-2.674-.185-3.692,0-15.782-.046-31.565.12-47.346a6.33,6.33,0,0,1,2.16-4.583c18.926-12.677,37.973-25.176,57-37.708.569-.373,1.185-.664,2.208-1.228.1,1.432.246,2.522.246,3.61.015,15.782-.038,31.565.059,47.346A5.319,5.319,0,0,1-1194.954,665.593Zm130.579,119.277a15.1,15.1,0,0,1-21.441-.349c-14.281-14.115-28.429-28.368-42.624-42.576-3.038-3.042-4.536-6.734-4.414-12.837.219-4.65,3.208-9.414,9.15-11.9,6.221-2.6,11.984-1.307,16.754,3.411,11.113,11,22.124,22.107,33.18,33.167,3.131,3.137,6.345,6.2,9.4,9.415C-1058.212,769.7-1058.254,778.892-1064.375,784.871Z" transform="translate(-0.001 0)" fill="#fff"/>
  </g>
</svg>
