<svg xmlns="http://www.w3.org/2000/svg" width="436.217" height="508.794" viewBox="0 0 436.217 508.794"><g transform="translate(0 89.617)"><path d="M359.352,189.746V24.917a7.548,7.548,0,0,0-7.56-7.535H105.728a7.548,7.548,0,0,0-7.56,7.535V189.746H18.227a7.533,7.533,0,0,0-5.6,12.593L223.157,434.082a7.577,7.577,0,0,0,11.207,0L444.9,202.339a7.533,7.533,0,0,0-5.6-12.593ZM61.162,216.263h63.611V43.9H332.748V216.263h63.611l-167.6,184.482Z" transform="translate(-10.652 -17.382)" fill="#fa7923"/></g><path d="M343.735-56.756v20.2H135.54v-20.2H343.735m-227.3-26.67a7.56,7.56,0,0,0-7.56,7.56v58.421a7.56,7.56,0,0,0,7.56,7.56H362.844a7.56,7.56,0,0,0,7.56-7.56V-75.866a7.559,7.559,0,0,0-7.56-7.56Z" transform="translate(-21.556 83.426)" fill="#fa7923"/></svg>