<svg xmlns="http://www.w3.org/2000/svg" width="512" height="379" viewBox="0 0 512 379"><path d="M160.023,303.2H319V30H30c.091,101.289-.208,185.763,0,273.2H50.977c13.488-40.184,64.879-52.656,95.18-22.352A57.478,57.478,0,0,1,160.023,303.2ZM414.5,264a57.525,57.525,0,0,1,54.457,39H482V228a17.058,17.058,0,0,0-17-17H390a15,15,0,0,1,0-30h40.727l-20.262-34c-13.684-22.961-35.273-37.3-61.465-40.375V303h11.043A57.525,57.525,0,0,1,414.5,264Zm56.352,69a57.514,57.514,0,0,1-112.7,0c-65.434,0-130.895.2-196.344.2a57.513,57.513,0,0,1-112.617,0H15a15,15,0,0,1-15-15V15A15,15,0,0,1,15,0H334a15,15,0,0,1,15,15V76.473c36.738,3.254,68.055,23.168,87.129,55.176L465.539,181A47.067,47.067,0,0,1,512,228v90a15,15,0,0,1-15,15Zm-36.906-30.945a27.5,27.5,0,0,1,0,38.891C416.672,358.223,387,345.934,387,321.5S416.672,284.777,433.945,302.055ZM78,321.5c.594-15.355,11.777-27.5,27.5-27.5,24.434,0,36.723,29.672,19.445,46.945S78,345.934,78,321.5Zm0,0" fill="#fff" fill-rule="evenodd"/></svg>