<svg xmlns="http://www.w3.org/2000/svg" width="511.979" height="511.979" viewBox="0 0 511.979 511.979"><path d="M466.981,60h-15V45a45,45,0,1,0-90,0V60h-60V45a45,45,0,1,0-90,0V60h-62V45a45,45,0,1,0-90,0V60H45A45.049,45.049,0,0,0,0,105V466.981a45.049,45.049,0,0,0,45,45H466.981a45.049,45.049,0,0,0,45-45V105A45.049,45.049,0,0,0,466.981,60Zm-75-15a15,15,0,0,1,30,0v60a15,15,0,1,1-30,0ZM241.99,45a15,15,0,1,1,30,0v60a15,15,0,1,1-30,0ZM90,45a15,15,0,0,1,30,0v60a15,15,0,0,1-30,0ZM481.98,466.981a15.016,15.016,0,0,1-15,15H45a15.016,15.016,0,0,1-15-15V211.991H481.98Zm0-284.988H30V105A15.016,15.016,0,0,1,45,90H60v15a45,45,0,0,0,90,0V90h62v15a45,45,0,1,0,90,0V90h60v15a45,45,0,0,0,90,0V90h15a15.016,15.016,0,0,1,15,15Z" fill="#0093e9"/><g transform="translate(59.998 241.99)"><path d="M436.985,242H75a15,15,0,0,0-15,15V436.992a15,15,0,0,0,15,15H436.985a15,15,0,0,0,15-15V257A15,15,0,0,0,436.985,242ZM150,421.993H90V362h60Zm0-90H90V272h60Zm92,90h-62V362h62Zm0-90h-62V272h62Zm90,90h-60V362h60Zm0-90h-60V272h60Zm90,90h-60V362h60Zm0-90h-60V272h60Z" transform="translate(-60 -242)" fill="#0093e9"/></g></svg>