<svg xmlns="http://www.w3.org/2000/svg" width="14.645" height="31.241" viewBox="0 0 14.645 31.241"><defs><style>.a{fill:#fa7923;}</style></defs><g transform="translate(0 0)"><path class="a" d="M199.666,106.759V90.919A.915.915,0,0,0,198.75,90h0a.915.915,0,0,0-.915.915v15.84a2.746,2.746,0,1,0,1.831,0Zm-.915,3.5a.915.915,0,1,1,.915-.915A.916.916,0,0,1,198.75,110.263Z" transform="translate(-192.343 -84.512)"/><path class="a" d="M150.645,4.577h0a.915.915,0,0,0-.915-.915h-2.838A4.584,4.584,0,0,0,142.411,0a4.646,4.646,0,0,0-4.58,4.642V20.352a6.41,6.41,0,1,0,9.153,0V20.2h2.746a.915.915,0,0,0,.915-.915h0a.915.915,0,0,0-.915-.915h-2.746V16.537h.916a.915.915,0,0,0,.915-.915h0a.915.915,0,0,0-.915-.915h-.916V12.814h2.746a.915.915,0,0,0,.915-.915h0a.915.915,0,0,0-.915-.915h-2.746V9.153h.916a.915.915,0,0,0,.915-.915h0a.915.915,0,0,0-.915-.915h-.916V5.492h2.746A.915.915,0,0,0,150.645,4.577ZM146.914,25.65a4.584,4.584,0,0,1-3.67,3.688,4.9,4.9,0,0,1-.837.075,4.577,4.577,0,0,1-4.576-4.577,4.766,4.766,0,0,1,1.831-3.684V4.577a2.746,2.746,0,1,1,5.492,0V21.151A4.686,4.686,0,0,1,146.914,25.65Z" transform="translate(-136 0)"/></g></svg>