<svg id="user" xmlns="http://www.w3.org/2000/svg" width="558.619" height="635.598" viewBox="0 0 558.619 635.598">
  <g id="Group_2335" data-name="Group 2335" transform="translate(111.724)">
    <g id="Group_2334" data-name="Group 2334">
      <path id="Path_2249" data-name="Path 2249" d="M288.586,0C196.179,0,121,75.181,121,167.589s75.179,167.589,167.586,167.589S456.171,260,456.171,167.589,380.993,0,288.586,0Zm0,297.936c-71.872,0-130.345-58.474-130.345-130.347S216.714,37.242,288.586,37.242,418.93,95.716,418.93,167.589,360.458,297.936,288.586,297.936Z" transform="translate(-121)" fill="#2a9faa"/>
    </g>
  </g>
  <g id="Group_2337" data-name="Group 2337" transform="translate(0 372.42)">
    <g id="Group_2336" data-name="Group 2336">
      <path id="Path_2250" data-name="Path 2250" d="M518.819,372.243C472.938,325.655,412.114,300,347.551,300H273.068c-64.562,0-125.386,25.656-171.268,72.244A244.238,244.238,0,0,0,31,544.556a18.621,18.621,0,0,0,18.621,18.621H571a18.621,18.621,0,0,0,18.621-18.621A244.238,244.238,0,0,0,518.819,372.243ZM69.061,525.935c9.329-105.625,97.263-188.693,204.008-188.693h74.483c106.745,0,194.679,83.067,204.008,188.693Z" transform="translate(-31 -300)" fill="#2a9faa"/>
    </g>
  </g>
</svg>
