<svg xmlns="http://www.w3.org/2000/svg" width="471.174" height="471.174" viewBox="0 0 471.174 471.174"><path d="M235.587,0C104.7,0,0,104.648,0,235.587,0,366.479,104.648,471.174,235.587,471.174c130.892,0,235.587-104.648,235.587-235.587C471.174,104.7,366.527,0,235.587,0Zm0,443.566c-115.633,0-207.979-92.3-207.979-207.979,0-115.633,92.3-207.979,207.979-207.979,115.633,0,207.979,92.3,207.979,207.979C443.566,351.22,351.267,443.566,235.587,443.566Z" fill="#0159ea"/><g transform="translate(55.307 55.351)"><path d="M345.285,94.11c-71.891-51.164-168.961-44.376-232.718,19.382-62.585,62.584-69.35,160.664-19.382,230.877a13.807,13.807,0,0,0,20.97,1.8L347,115.157A13.81,13.81,0,0,0,345.285,94.11Zm-238.4,220.382a151.341,151.341,0,0,1,25.209-181.479c49.958-49.958,123.26-59.43,183.234-25.316Z" transform="translate(-60.099 -60.147)" fill="#0159ea"/></g><g transform="translate(124.884 125.803)"><path d="M393.6,142.5a13.809,13.809,0,0,0-20.969-1.8L139.783,371.714a13.809,13.809,0,0,0,1.718,21.045c72.3,51.455,169.32,44.018,232.718-19.381C436.8,310.794,443.569,212.713,393.6,142.5ZM354.7,353.857c-49.968,49.968-123.269,59.425-183.234,25.317l208.443-206.8A151.341,151.341,0,0,1,354.7,353.857Z" transform="translate(-135.704 -136.704)" fill="#0159ea"/></g></svg>