<svg xmlns="http://www.w3.org/2000/svg" xmlns:xlink="http://www.w3.org/1999/xlink" width="75.983" height="75.983" viewBox="0 0 75.983 75.983"><defs><style>.a{fill:url(#a);}</style><linearGradient id="a" x1="0.5" y1="-0.447" x2="0.5" y2="1.158" gradientUnits="objectBoundingBox"><stop offset="0" stop-color="#0093e9"/><stop offset="1" stop-color="#36c2cf"/></linearGradient></defs><path class="a" d="M179.939,151H153.226A2.226,2.226,0,0,0,151,153.226v26.713a2.226,2.226,0,0,0,2.226,2.226h26.713a2.226,2.226,0,0,0,2.226-2.226V153.226A2.226,2.226,0,0,0,179.939,151Zm-15.582,4.452h4.452V159.9h-4.452Zm13.356,22.261H155.452V155.452H159.9v6.678a2.226,2.226,0,0,0,2.226,2.226h8.9a2.226,2.226,0,0,0,2.226-2.226v-6.678h4.452Z" transform="translate(-128.591 -128.591)"/><path class="a" d="M73.757,35.765H66.845A28.986,28.986,0,0,0,40.217,9.137V2.226a2.226,2.226,0,1,0-4.452,0V9.137A28.986,28.986,0,0,0,9.137,35.765H2.226a2.226,2.226,0,0,0,0,4.452H9.137A28.986,28.986,0,0,0,35.765,66.845v6.911a2.226,2.226,0,1,0,4.452,0V66.845A28.986,28.986,0,0,0,66.845,40.217h6.911a2.226,2.226,0,0,0,0-4.452ZM40.217,62.376V60.252a2.226,2.226,0,1,0-4.452,0v2.124A24.527,24.527,0,0,1,13.607,40.217h2.124a2.226,2.226,0,1,0,0-4.452H13.607A24.527,24.527,0,0,1,35.765,13.607v2.124a2.226,2.226,0,1,0,4.452,0V13.607A24.527,24.527,0,0,1,62.376,35.765H60.252a2.226,2.226,0,1,0,0,4.452h2.124A24.527,24.527,0,0,1,40.217,62.376Z"/><path class="a" d="M33.226,44.356a2.226,2.226,0,0,0,2.226-2.226V35.452H42.13a2.226,2.226,0,1,0,0-4.452h-8.9A2.226,2.226,0,0,0,31,33.226v8.9A2.226,2.226,0,0,0,33.226,44.356Z" transform="translate(-26.399 -26.399)"/><path class="a" d="M42.13,399.9H35.452v-6.678a2.226,2.226,0,1,0-4.452,0v8.9a2.226,2.226,0,0,0,2.226,2.226h8.9a2.226,2.226,0,0,0,0-4.452Z" transform="translate(-26.399 -332.974)"/><path class="a" d="M402.13,391a2.226,2.226,0,0,0-2.226,2.226V399.9h-6.678a2.226,2.226,0,0,0,0,4.452h8.9a2.226,2.226,0,0,0,2.226-2.226v-8.9A2.226,2.226,0,0,0,402.13,391Z" transform="translate(-332.974 -332.974)"/><path class="a" d="M393.226,35.452H399.9V42.13a2.226,2.226,0,0,0,4.452,0v-8.9A2.226,2.226,0,0,0,402.13,31h-8.9a2.226,2.226,0,1,0,0,4.452Z" transform="translate(-332.974 -26.399)"/></svg>