<svg xmlns="http://www.w3.org/2000/svg" width="512" height="511.998" viewBox="0 0 512 511.998"><g transform="translate(-2645.999 -3978.001)"><g transform="translate(2645.999 4490) rotate(-90)"><path d="M447.615,64.386a219.824,219.824,0,0,0-321.133,299.9L4.4,486.366A15.015,15.015,0,1,0,25.633,507.6L147.717,385.518A219.824,219.824,0,0,0,512,219.825,218.385,218.385,0,0,0,447.615,64.386ZM426.379,354.029c-74,74-194.406,74-268.407,0s-74-194.407,0-268.407a190.009,190.009,0,0,1,268.408,0C500.378,159.621,500.378,280.028,426.379,354.029Z" fill="#89d1f0"/></g><g transform="translate(-3.988 -10.004)"><path d="M316.992,60.5a105.018,105.018,0,0,0-88.059,162.219c.5.77-4.539-6.035,76.043,101.773a15.008,15.008,0,0,0,24.031,0c80.547-107.766,75.531-100.988,76.043-101.773A105.018,105.018,0,0,0,316.992,60.5ZM380.16,205.965l-63.168,84.5-63.168-84.5a75,75,0,1,1,126.336,0Zm0,0" transform="translate(2552 4012.5)" fill="#89d1f0"/><path d="M316.992,120.5a45,45,0,1,0,45,45A45.056,45.056,0,0,0,316.992,120.5Zm0,60a15,15,0,1,1,15-15A15.016,15.016,0,0,1,316.992,180.508Zm0,0" transform="translate(2552 4012.5)" fill="#89d1f0"/></g></g></svg>