<svg xmlns="http://www.w3.org/2000/svg" width="508.789" height="376.771" viewBox="0 0 508.789 376.771"><path d="M159.02,301.412H317V29.824H29.812c.091,100.693-.207,184.67,0,271.588H50.657c13.4-39.947,64.472-52.346,94.583-22.22A57.143,57.143,0,0,1,159.02,301.412ZM411.9,262.447a57.166,57.166,0,0,1,54.115,38.771h12.961V226.659a16.954,16.954,0,0,0-16.893-16.9h-74.53a14.912,14.912,0,0,1,0-29.824h40.471l-20.135-33.8c-13.6-22.826-35.052-37.081-61.079-40.137V301.218h10.974A57.166,57.166,0,0,1,411.9,262.447Zm56,68.594a57.149,57.149,0,0,1-111.993,0c-65.023,0-130.074.194-195.112.194a57.148,57.148,0,0,1-111.911,0H14.906A14.908,14.908,0,0,1,0,316.324V14.912A14.908,14.908,0,0,1,14.906,0h317a14.908,14.908,0,0,1,14.906,14.912V76.023c36.508,3.235,67.628,23.032,86.582,54.851l29.226,49.065a46.781,46.781,0,0,1,46.17,46.72v89.471a14.908,14.908,0,0,1-14.906,14.912Zm-36.675-30.763a27.347,27.347,0,0,1,0,38.662c-17.165,17.176-46.651,4.959-46.651-19.331S414.059,283.1,431.224,300.278ZM77.511,319.609c.59-15.265,11.7-27.338,27.328-27.338,24.28,0,36.492,29.5,19.323,46.669S77.511,343.9,77.511,319.609Zm0,0" fill="#2ba3ae" fill-rule="evenodd"/></svg>