<svg xmlns="http://www.w3.org/2000/svg" width="370.792" height="512.001" viewBox="0 0 370.792 512.001"><path d="M432.3,235.862a26.406,26.406,0,0,1-18.728-7.756L273.4,87.935,133.213,228.106a26.484,26.484,0,0,1-37.456-37.453l158.91-158.9a26.487,26.487,0,0,1,37.457,0l158.91,158.9a26.482,26.482,0,0,1-18.728,45.209ZM292.123,528.243l158.91-158.9a26.484,26.484,0,1,0-37.456-37.453L273.4,472.064,133.213,331.894a26.484,26.484,0,0,0-37.456,37.453l158.91,158.9A26.487,26.487,0,0,0,292.123,528.243Z" transform="translate(-88 -23.999)"/></svg>