<svg xmlns="http://www.w3.org/2000/svg" width="553.434" height="512" viewBox="0 0 553.434 512">
  <g id="Group_8102" data-name="Group 8102" transform="translate(-4487.146 1415.942)">
    <path id="Path_7263" data-name="Path 7263" d="M4651.426-1004.988c-17.091,0-34.2.534-51.27-.131-22.934-.9-43.215-9.705-61.214-23.587-32.006-24.686-49.728-57.553-51.637-97.749-1.917-40.287,13.336-73.929,44.583-99.844,3.572-2.961,5.364-5.4,4.695-10.66-4.419-34.678,7.858-62.762,35.647-83.582,18.419-13.8,39.82-18.255,62.518-15.638,4.215.485,6.134-.205,8.321-3.73,26.265-42.32,64.689-67.06,113.419-74.208,47.2-6.925,89.743,5.97,126.471,36.674,28,23.4,45.564,53.2,52.752,89.006.84,4.19,2.369,6.532,6.927,7.927,51.777,15.851,91,65.21,97.077,119.021,6.514,57.754-24.311,115.47-76.323,142.325-17.174,8.866-35.6,13.957-55.1,14.038q-40.787.167-81.575-.035c-7.595-.029-12.593-3.88-14.846-10.731-1.911-5.815-.052-13.1,5.5-16.291a27.3,27.3,0,0,1,12.813-3.22c24.1-.3,48.222.408,72.3-.391,11.144-.371,22.829-1.674,33.186-5.491,41.345-15.225,66.446-45.3,72.691-88.823,6.638-46.272-11.093-83.2-49.619-109.274-9.8-6.634-21.8-10.551-33.3-13.994-12.342-3.693-16.409-6.54-17.942-19.282a122.78,122.78,0,0,0-23.575-59.556c-21.226-28.552-49.409-46.174-84.754-51.429-59.172-8.8-111.814,21.824-136.621,71.159-5.064,10.069-10.806,11.961-23.085,8.627-19.312-5.241-37.351-2.557-52.643,10.8-17.967,15.7-24.758,35.387-18.35,58.888,3.736,13.69,2.386,17.583-9.6,25.824-28.859,19.84-42.294,47.514-40.961,82.241,1.6,41.846,34.962,80.889,76.017,89.377a74.224,74.224,0,0,0,14.74,1.128q44.188.152,88.376.017c6.959-.02,13.273,1.224,17.038,7.737,6.07,10.489-1.038,22.7-13.835,23.046-16.261.44-32.545.106-48.819.106Z" transform="translate(0 0)" fill="#0093e9"/>
    <path id="Path_7264" data-name="Path 7264" d="M4671.871-1284.447v7.234q0,119.4-.1,238.8a33.35,33.35,0,0,1-2.363,13.078c-2.582,5.861-9.428,8.592-15.539,7.481a15.013,15.013,0,0,1-12.428-12.789,63.748,63.748,0,0,1-.422-8.609q-.03-119.091-.018-238.182v-8.582c-2.807,2.6-4.448,4.014-5.975,5.548-15.825,15.882-31.577,31.836-47.461,47.656-7.308,7.276-14.628,8.127-21.447,2.908a15.293,15.293,0,0,1-3.457-20.9,44.5,44.5,0,0,1,5.315-5.977q37.31-37.3,74.665-74.557c10.372-10.342,17.4-10.281,27.821.118,25.191,25.133,50.455,50.195,75.489,75.481,2.894,2.923,5.587,6.841,6.513,10.74,1.754,7.382-1.556,13.144-7.836,16.448-6.02,3.165-12.473,2.121-17.968-3.315q-24.347-24.087-48.494-48.368a42.046,42.046,0,0,1-3.965-5.454Z" transform="translate(107.373 113.67)" fill="#0093e9"/>
  </g>
</svg>
