<svg xmlns="http://www.w3.org/2000/svg" width="110" height="110" viewBox="0 0 110 110"><defs><style>.a{fill:#0093e9;}.b{fill:#36c2cf;}.c{fill:#fff;}</style></defs><path class="a" d="M55,0A55,55,0,1,1,0,55,55,55,0,0,1,55,0Z" transform="translate(0 0)"/><path class="b" d="M147.627,92.7a55.1,55.1,0,0,1-54.934,54.934,54.056,54.056,0,0,1-42.917-20.6A54.2,54.2,0,0,0,84.11,139.046a55.1,55.1,0,0,0,54.934-54.934,54.2,54.2,0,0,0-12.017-34.333A54.054,54.054,0,0,1,147.627,92.7Z" transform="translate(-37.628 -37.629)"/><path class="c" d="M158.456,131.2,122.97,170.768a5.765,5.765,0,0,1-8.872,0L99.085,153.759a6.5,6.5,0,0,1,.341-8.678,6.233,6.233,0,0,1,8.53.347l10.578,12.15,31.05-34.366c2.389-2.43,6.142-2.777,8.53-.347A6.059,6.059,0,0,1,158.456,131.2Z" transform="translate(-73.77 -92.161)"/></svg>