<svg xmlns="http://www.w3.org/2000/svg" width="510.493" height="475.683" viewBox="0 0 510.493 475.683"><g transform="translate(7.5)"><path d="M1034.543,185.764V400.606H665.694V31.787H808.187a12.23,12.23,0,0,0,12.232-12.229h0A12.231,12.231,0,0,0,808.187,7.328H648.165a6.932,6.932,0,0,0-6.932,6.933v403.87a6.932,6.932,0,0,0,6.932,6.933h403.9a6.935,6.935,0,0,0,6.935-6.933V185.764a12.229,12.229,0,0,0-12.229-12.229h0A12.23,12.23,0,0,0,1034.543,185.764Z" transform="translate(-641.232 43.118)" fill="#0093e9" stroke="#0093e9" stroke-width="15"/><g transform="translate(85.525 0)"><g transform="translate(0 0)"><path d="M1157.478-48.433a20.873,20.873,0,0,0-29.519,0L877.882,201.624l-96.125-96.117a20.873,20.873,0,0,0-29.52,29.516L863.122,245.9a20.879,20.879,0,0,0,29.519,0L1157.478-18.916A20.871,20.871,0,0,0,1157.478-48.433Z" transform="translate(-746.123 54.546)" fill="#0093e9"/></g></g></g></svg>