<svg xmlns="http://www.w3.org/2000/svg" width="636.215" height="636" viewBox="0 0 636.215 636">
  <path id="Path_7209" data-name="Path 7209" d="M1688.013,105.1c0,12.32.112,23.933-.072,35.542-.052,3.422.862,5.2,4.2,6.781,20.926,9.922,32.469,26.613,32.986,49.8.585,26.105.463,52.236.053,78.345-.373,23.773-12.067,40.618-33.3,51.076-1.533.755-3.734,2.566-3.648,3.742.278,3.8-2.245,8.164,2.524,11.29,32.508,21.288,64.655,43.15,97.518,63.875,9.522,6.006,13.514,12.027,13.152,23.663-.978,31.682-.377,63.416-.177,95.128a11.345,11.345,0,0,0,2.907,7.041c7.684,8.121,15.785,15.85,23.585,23.868,2.162,2.227,3.9,2.8,7.068,1.65,21.6-7.8,41.576-4.56,58.3,11.272,19.056,18.049,37.682,36.606,55.662,55.721,15.651,16.635,18.642,36.6,11.076,58.007-1.125,3.184-.519,4.944,1.682,7.07,8.761,8.464,17.394,17.055,26.446,25.963-8.485,8.354-16.6,16.247-24.589,24.274-2.127,2.14-3.368,1-4.926-.567-7.695-7.726-15.517-15.33-23.118-23.147-2.274-2.339-4.108-2.957-7.441-1.794-21.969,7.659-42.076,4.091-58.968-12.069q-27.511-26.321-53.864-53.852c-16.278-17.035-19.77-37.235-11.843-59.355.941-2.636.853-4.388-1.28-6.427-6.331-6.043-12.588-12.18-18.556-18.574-2.5-2.68-4.229-2.669-7.175-.713-34.056,22.6-68.233,45-102.267,67.639-3.409,2.268-5.68,2.282-9.09-.013-33.556-22.57-67.275-44.9-100.837-67.453-3.264-2.191-5.135-2.125-7.875.745-6.342,6.635-13.032,12.935-19.681,19.263-1.795,1.706-2.157,3.179-1.278,5.609,8.239,22.811,4.2,43.277-12.735,60.688q-25.354,26.068-51.413,51.445c-17.589,17.228-38.2,21.627-61.342,13.088-2.745-1.011-4.192-.217-5.955,1.579-8.526,8.7-17.135,17.321-25.534,25.783-8.875-9.037-17.436-17.756-26.449-26.936,7.866-7.753,16.235-16.182,24.837-24.371,2.64-2.51,3.148-4.527,1.874-8.147-7.631-21.681-3.929-41.529,11.942-58.173Q1417,595.606,1444.867,569c16.936-16.115,37.064-19.539,59.009-11.619,2.775,1,4.562.988,6.768-1.234,8.382-8.45,17.1-16.57,25.425-25.077a10.55,10.55,0,0,0,2.707-6.688q.257-52.091.028-104.18c-.017-4.021,1.1-6.434,4.554-8.719,34.687-22.931,69.178-46.158,103.9-69.036,5.089-3.353,2.879-7.772,3.405-11.867.423-3.284-2.49-3.318-4.413-4.288-20.332-10.214-31.965-26.635-32.611-49.375q-1.136-40,0-80.06c.662-22.912,12.275-39.542,33.026-49.427,3.067-1.46,4.223-2.986,4.154-6.38-.23-10.758-.169-21.524.005-32.283.017-1.235,1.425-3.492,2.225-3.508C1664.493,105.028,1675.939,105.1,1688.013,105.1Zm.035,279.493c0,6.694-.142,12.135.059,17.563.109,3.067-1.052,3.945-3.994,3.892-8.741-.158-17.486-.05-26.232-.1-8.011-.043-7.075.851-7.136-7.11-.035-4.307-.007-8.614-.007-14.025l-59.123,39.458c1.226,1.035,1.723,1.541,2.3,1.925,24.307,16.227,48.651,32.4,72.893,48.724,2.745,1.851,4.475.6,6.525-.744q35.882-23.653,71.756-47.319a35.2,35.2,0,0,0,3.113-2.676Zm.2,191.182c1.712-.956,2.729-1.44,3.661-2.053,22.86-15.073,45.689-30.2,68.61-45.185a6.533,6.533,0,0,0,3.333-6.275c-.116-19.368-.053-38.738-.073-58.108,0-1.336-.173-2.674-.3-4.431-1.256.692-2.017,1.049-2.712,1.507-23.348,15.381-46.723,30.721-69.953,46.28-1.5,1.007-2.629,3.7-2.648,5.624-.206,19.368-.147,38.737-.147,58.107C1688.023,572.493,1688.142,573.745,1688.249,575.775Zm-37.816-.355c.129-1.978.291-3.344.291-4.708.02-19.067-.083-38.134.1-57.2.035-3.506-1.267-5.442-4.032-7.27q-33.336-22.039-66.553-44.264c-1.1-.735-2.357-1.255-4.071-2.156,0,2.364,0,3.93,0,5.495.009,18.636.145,37.274-.062,55.909-.042,3.816,1.285,5.948,4.35,7.972,22.13,14.584,44.152,29.332,66.216,44.016C1647.7,573.895,1648.8,574.463,1650.433,575.42Zm37.548-338.534c0-12.48.042-24.961-.017-37.443-.046-11.285-7.921-19.633-18.429-19.669s-18.694,8.288-18.729,19.416q-.129,37.656,0,75.314c.039,11.092,8.3,19.569,18.707,19.526,10.445-.041,18.4-8.474,18.455-19.7C1688.03,261.848,1687.98,249.368,1687.98,236.887ZM1432.708,680.906c2.576-1.317,7.63-2.616,10.887-5.771,17.912-17.333,35.407-35.1,52.991-52.768a17.509,17.509,0,0,0,5.231-14.069c-.577-7.888-4.591-13.587-12-16.3-7.167-2.627-13.937-1.281-19.481,4.111-8.826,8.591-17.471,17.369-26.185,26.079-8.916,8.912-17.949,17.711-26.685,26.8-5.558,5.781-6.97,12.792-3.8,20.26C1416.755,676.545,1422.762,679.974,1432.708,680.906Zm404.023-74.416c-.149,7.491,1.688,12.022,5.419,15.755,17.42,17.438,34.784,34.93,52.31,52.254,7.614,7.524,19.047,7.532,26.315.429,7.513-7.338,7.564-18.619,0-26.591-3.744-3.945-7.687-7.7-11.534-11.555-13.566-13.575-27.082-27.207-40.725-40.706-5.851-5.791-12.92-7.376-20.555-4.186C1840.668,594.936,1837,600.784,1836.731,606.49Z" transform="translate(-1351.764 -105.09)" fill="#0093e9"/>
</svg>
