<svg width="279" height="21" viewBox="0 0 279 21" fill="none" xmlns="http://www.w3.org/2000/svg">
<g clip-path="url(#clip0_318_872)">
<path d="M7.66 19.8999L0 0.169922H5.35L10.4 14.6799L15.4 0.169922H20.6L12.85 19.8999H7.66Z" fill="white"/>
<path d="M28.3283 16.2599L26.8983 19.8999H21.7383L30.2483 0.169922H35.4083L43.7183 19.8999H38.3683L36.9983 16.2599H28.3283ZM32.6783 5.15992L29.7983 12.4599H35.4883L32.6783 5.15992Z" fill="white"/>
<path d="M64.9994 3.33L62.0994 6.77C61.4996 6.00747 60.7425 5.38319 59.8797 4.93969C59.0168 4.4962 58.0685 4.2439 57.0994 4.2C56.3586 4.20081 55.6256 4.35097 54.9442 4.64151C54.2628 4.93205 53.647 5.35701 53.1336 5.89097C52.6202 6.42493 52.2197 7.05694 51.9561 7.7492C51.6925 8.44147 51.5711 9.17978 51.5994 9.92C51.5644 10.6662 51.6803 11.4118 51.9404 12.1122C52.2005 12.8125 52.5992 13.4531 53.1128 13.9956C53.6264 14.5381 54.2442 14.9714 54.9292 15.2694C55.6142 15.5674 56.3524 15.7241 57.0994 15.73C59.0002 15.628 60.7896 14.8013 62.0994 13.42L65.0294 16.52C62.8845 18.7286 59.9665 20.0191 56.8894 20.12C55.5385 20.1647 54.1926 19.9351 52.9329 19.445C51.6733 18.955 50.526 18.2147 49.5605 17.2688C48.595 16.3229 47.8313 15.1911 47.3154 13.9418C46.7996 12.6924 46.5424 11.3515 46.5594 10C46.5594 4.3 51.0894 0 57.0994 0C60.0648 0.044024 62.8972 1.23795 64.9994 3.33V3.33Z" fill="white"/>
<path d="M87.0016 3.33L84.1016 6.77C83.5009 6.00845 82.7436 5.38487 81.8809 4.94147C81.0183 4.49807 80.0704 4.2452 79.1016 4.2C78.3608 4.20081 77.6278 4.35097 76.9464 4.64151C76.265 4.93205 75.6492 5.35701 75.1358 5.89097C74.6223 6.42493 74.2219 7.05694 73.9583 7.7492C73.6946 8.44147 73.5733 9.17978 73.6016 9.92C73.5665 10.6662 73.6825 11.4118 73.9426 12.1122C74.2026 12.8125 74.6014 13.4531 75.115 13.9956C75.6285 14.5381 76.2463 14.9714 76.9314 15.2694C77.6164 15.5674 78.3545 15.7241 79.1016 15.73C81.0024 15.628 82.7918 14.8013 84.1016 13.42L87.0316 16.52C84.8818 18.7275 81.9612 20.0175 78.8816 20.12C77.5307 20.1647 76.1848 19.9351 74.9251 19.445C73.6654 18.955 72.5182 18.2147 71.5527 17.2688C70.5872 16.3229 69.8234 15.1911 69.3076 13.9418C68.7918 12.6924 68.5346 11.3515 68.5516 10C68.5516 4.3 73.0916 0 79.0916 0C82.06 0.0435318 84.8958 1.23734 87.0016 3.33V3.33Z" fill="white"/>
<path d="M92.1797 19.8999V0.169922H97.1797V19.8999H92.1797Z" fill="white"/>
<path d="M117.75 19.8999L108.67 7.74992V19.8999H104V0.169922H108.42L117.53 12.3499V0.169922H122.2V19.8999H117.75Z" fill="white"/>
<path d="M134 4.11992V7.99992H143.41V11.9999H134V15.9999H144.7V19.8999H129V0.169922H144.4V4.16992L134 4.11992Z" fill="white"/>
<path d="M164.161 15.6999V19.8999H150.781V0.169922H155.781V15.6999H164.161Z" fill="black"/>
<path d="M174.401 4.11992V7.99992H183.821V11.9999H174.401V15.9999H185.141V19.8999H169.391V0.169922H184.831V4.16992L174.401 4.11992Z" fill="black"/>
<path d="M199.701 0.169922C205.901 0.169922 210.181 4.16992 210.181 10.0399C210.181 15.9099 205.841 19.8999 199.501 19.8999H191.211V0.169922H199.701ZM196.231 15.8999H199.811C202.881 15.8999 205.081 13.5299 205.081 10.0599C205.081 6.58992 202.771 4.16992 199.581 4.16992H196.231V15.8999Z" fill="black"/>
<path d="M232.74 9.87004V17.56C230.302 19.1679 227.46 20.0552 224.54 20.12C218.54 20.12 214 15.78 214 10.04C214 4.30004 218.65 0.0400391 224.88 0.0400391C227.826 0.0467406 230.677 1.08319 232.94 2.97004L230.12 6.38004C228.678 5.05543 226.807 4.29556 224.85 4.24004C224.094 4.23464 223.344 4.38024 222.645 4.66829C221.946 4.95635 221.312 5.38107 220.779 5.91755C220.246 6.45403 219.826 7.09147 219.543 7.7925C219.26 8.49353 219.119 9.24405 219.13 10C219.108 10.7696 219.242 11.5357 219.524 12.2522C219.806 12.9688 220.229 13.6211 220.769 14.1702C221.308 14.7192 221.953 15.1537 222.665 15.4475C223.377 15.7413 224.14 15.8884 224.91 15.88C226.123 15.8429 227.314 15.5427 228.4 15V9.87004H232.74Z" fill="black"/>
<path d="M244.08 4.11992V7.99992H253.5V11.9999H244.08V15.9999H254.82V19.8999H239.07V0.169922H254.51V4.16992L244.08 4.11992Z" fill="black"/>
<path d="M269.86 14.3499H265.91V19.8999H260.91V0.169922H269.74C274.95 0.169922 277.94 2.64992 277.94 7.04992C277.94 10.0499 276.67 12.2299 274.36 13.3899L278.5 19.8999H272.81L269.86 14.3499ZM269.72 10.3999C271.88 10.3999 273.15 9.29992 273.15 7.20992C273.15 5.11992 271.88 4.11992 269.72 4.11992H265.91V10.3999H269.72Z" fill="black"/>
</g>
<defs>
<clipPath id="clip0_318_872">
<rect width="278.48" height="20.12" fill="white"/>
</clipPath>
</defs>
</svg>
